<svg xmlns="http://www.w3.org/2000/svg" aria-hidden="true" style="position:absolute;width:0;height:0;overflow:hidden"><defs><symbol id="icon-hand" viewBox="0 0 26 32"><path fill="#e4c07a" d="M15.37 4.194c.152-.124.349-.24.556-.359s.426-.243.625-.382c.365-.257.657-.567.686-1.008-.116.457-.421.735-.775.96-.191.122-.397.229-.594.342-.173.099-.34.201-.486.321l-.062.053c-.017.015-.016.04-.001.06.007.01.016.017.025.019a.024.024 0 0 0 .012 0l.013-.007z" style="fill:var(--color1, #e4c07a)"/><path fill="#e4c07a" d="M15.51 4.041c.353-.185.709-.381 1.075-.521.416-.159.848-.248 1.312-.17l.093.018c.003.001.004 0 .005-.001l.004-.006v-.006l-.003-.002c-.88-.19-1.734.214-2.486.689zm-.213.129-.004-.007-.001-.001.005.009zM15.337 4.928c.48-.058 1.06-.181 1.564-.427.483-.236.894-.583 1.082-1.09-.302.427-.632.746-1.079.991l-.095.05c-.405.205-.852.297-1.292.37l-.188.031c-.009.001-.015.006-.018.013s-.006.018-.004.029c.001.011.006.02.011.026a.024.024 0 0 0 .009.006l.012.001zM15.294 5.568c1.102-.01 2.434-.14 3.277-.968l.08-.083c.003-.004.004-.007.003-.011l-.003-.006-.005-.004a2.68 2.68 0 0 0-1.42-.161c.38-.041.761-.013 1.133.086l.086.024c.033.01.058.02.077.032s.033.024.04.04c.016.033-.003.064-.026.088s-.06.05-.097.073l-.104.066a2.491 2.491 0 0 1-.391.217l-.135.06c-.747.322-1.556.427-2.356.442l-.16.002c-.016 0-.026.006-.033.015s-.012.022-.012.036.004.027.012.036a.036.036 0 0 0 .023.014l.011.001zM15.15 8.301c.49.619 1.303 1.039 2.08.963l.075-.009a.051.051 0 0 0 .029-.013.044.044 0 0 0 .008-.011l.002-.014c-.04-.512-.366-.859-.774-1.13a5.744 5.744 0 0 0-.647-.358c-.144-.07-.286-.137-.417-.204.138.087.28.166.423.245.181.1.362.2.534.319l.073.052c.205.15.392.336.541.549l.062.093c.005.008.01.02.016.033l.019.05.047.126c.017.043.034.084.05.113.008.015.016.025.023.032s.009.007.009.007l.004.033-.062.006c-.745.055-1.425-.295-1.937-.838l-.1-.111c-.01-.012-.02-.015-.029-.014s-.018.005-.026.014a.051.051 0 0 0-.009.059l.006.009z" style="fill:var(--color1, #e4c07a)"/><path fill="#e4c07a" d="M15.477 7.492c.752.462 1.625.873 2.493.716l.092-.019.003-.002V8.18c-.001-.003-.002-.005-.004-.006l-.005-.001c-.51.115-.993.023-1.459-.151-.383-.144-.757-.343-1.122-.53zM18.026 8.118c-.199-.512-.63-.86-1.133-1.094-.524-.244-1.124-.363-1.612-.418l-.012.001a.018.018 0 0 0-.009.006c-.006.006-.01.016-.011.026s0 .021.004.028a.055.055 0 0 0 .007.009l.011.004c1.097.164 2.061.483 2.754 1.436z" style="fill:var(--color1, #e4c07a)"/><path fill="#e4c07a" d="m18.655 6.944.004-.002c-.318-.298-.698-.491-1.1-.632l-.182-.06c-.015-.005-.027-.002-.035.004s-.017.018-.02.031c-.006.024.001.048.021.059l.01.004c.441.133.867.316 1.22.63l.083-.034zm.031.116a.055.055 0 0 0 .03-.033.037.037 0 0 0-.003-.031l-.007-.01-.027-.026v.002l-.025.101-.002.01.036-.013zm-.049-.073-.038.016.028.026.01-.041zm-1.457.21c.467.1 1.004.047 1.452-.117l-.008-.008-.059-.055a2.875 2.875 0 0 1-1.385.18z" style="fill:var(--color1, #e4c07a)"/><path fill="#e4c07a" d="M15.279 6.147c.565.216 1.213.226 1.82.183l.257-.021c.256-.024.582-.053.887-.135.286-.077.552-.198.724-.402L19 5.73c.004-.005.005-.01.004-.013l-.002-.005-.005-.005c-.426-.3-.893-.423-1.389-.44.19.018.378.044.565.086l.121.03c.132.036.259.09.38.153l.121.065.038.021.035.019c.022.012.043.025.057.04s.023.035.018.059a.119.119 0 0 1-.028.051l-.017.018a1.252 1.252 0 0 1-.506.275c-.094.03-.191.053-.286.073l-.272.052c-.773.142-1.711.188-2.473-.084l-.073-.028c-.008-.003-.012-.001-.016.001s-.008.008-.01.015c-.003.011-.001.023.007.03l.009.006zM10.206 4.201a.045.045 0 0 0 .025-.019c.011-.015.014-.033.008-.047l-.009-.013c-.161-.143-.35-.261-.548-.374s-.404-.22-.595-.342c-.354-.225-.659-.503-.775-.96.029.441.321.751.687 1.008.198.14.417.263.625.382.181.104.354.206.497.313l.059.046c.009.007.018.009.026.006z" style="fill:var(--color1, #e4c07a)"/><path fill="#e4c07a" d="M10.039 4.04c-.751-.475-1.605-.879-2.485-.689l-.003.002v.006c.001.003.002.005.004.006l.005.001c.499-.107.961-.017 1.405.153.366.14.721.335 1.074.52zM10.213 4.928c.009.001.016-.002.021-.008s.01-.015.011-.026a.054.054 0 0 0-.004-.029l-.007-.009-.011-.005c-.475-.076-.945-.166-1.391-.36l-.089-.04c-.499-.235-.857-.591-1.175-1.042.188.507.599.855 1.082 1.09.441.215.94.336 1.379.402l.184.025zM10.256 5.568c.015 0 .026-.006.033-.015s.012-.022.012-.036-.004-.027-.012-.036a.036.036 0 0 0-.023-.014l-.011-.001c-.772-.003-1.55-.085-2.284-.351l-.146-.056a3.918 3.918 0 0 1-.355-.163l-.115-.062a2.535 2.535 0 0 1-.236-.16.733.733 0 0 1-.116-.104.094.094 0 0 1-.025-.047.037.037 0 0 1 .004-.025.028.028 0 0 1 .009-.01l.012-.007c.407-.166.876-.196 1.312-.147a2.665 2.665 0 0 0-1.314.127l-.097.036a.02.02 0 0 0-.009.009v.006l.003.005c.785.846 2.049 1.019 3.141 1.047l.216.004zM8.246 9.255c.774.108 1.596-.29 2.106-.895l.048-.059a.051.051 0 0 0-.003-.068.045.045 0 0 0-.026-.014.031.031 0 0 0-.021.007l-.008.007c-.507.589-1.175.959-1.935.952l-.074-.002c-.044-.002-.076-.013-.088-.04-.006-.013-.006-.027-.003-.041s.008-.028.015-.043c.014-.029.035-.062.055-.094l.029-.048.023-.046c.079-.187.218-.345.363-.485l.145-.133c.204-.182.435-.316.668-.444.169-.093.339-.182.502-.284-.131.066-.272.133-.415.203a5.833 5.833 0 0 0-.647.358c-.383.254-.693.575-.763 1.036l-.011.094a.028.028 0 0 0 .01.025.057.057 0 0 0 .013.008l.016.004z" style="fill:var(--color1, #e4c07a)"/><path fill="#e4c07a" d="M7.488 8.189c.898.205 1.807-.219 2.586-.697-.365.187-.739.387-1.122.53-.436.163-.888.254-1.363.17l-.095-.019c-.002-.001-.004 0-.005.001l-.004.006v.007l.003.002zM7.524 8.118c.649-.892 1.535-1.229 2.546-1.403l.208-.033c.009-.001.015-.006.019-.013s.006-.018.004-.028-.006-.02-.011-.026a.023.023 0 0 0-.021-.008l-.188.023c-.449.063-.965.181-1.424.394-.503.234-.934.582-1.133 1.094z" style="fill:var(--color1, #e4c07a)"/><path fill="#e4c07a" d="M6.978 6.978c.306-.272.666-.446 1.044-.574l.177-.056c.028-.009.038-.036.031-.063a.056.056 0 0 0-.02-.031.035.035 0 0 0-.025-.006l-.011.002c-.469.146-.917.349-1.282.692l.004.002.082.034zm-.08.086-.025-.101-.001-.002-.027.026a.04.04 0 0 0-.01.041.05.05 0 0 0 .02.028l.01.005.036.013-.002-.01zm.053-.061a.615.615 0 0 1-.038-.016l.01.041.028-.026zm-.034.077c.448.164.985.217 1.452.117a2.875 2.875 0 0 1-1.385-.18l-.059.055-.008.008z" style="fill:var(--color1, #e4c07a)"/><path fill="#e4c07a" d="M7.864 5.27c-.43.025-.838.133-1.215.372l-.096.064c-.004.003-.006.007-.006.01s.001.008.004.013c.164.221.43.349.718.429.216.06.444.093.648.118l.196.023c.653.077 1.394.099 2.033-.108l.126-.045c.014-.005.02-.02.016-.035a.028.028 0 0 0-.01-.015.014.014 0 0 0-.006-.002l-.009.002c-.733.287-1.622.253-2.394.136l-.153-.024c-.336-.056-.719-.14-1.007-.355l-.056-.045c-.028-.024-.045-.046-.049-.069-.004-.024.007-.044.022-.059s.037-.028.059-.04l.069-.039c.117-.074.244-.129.372-.175l.129-.043c.196-.063.402-.093.608-.113zM13.536 3.535l.005-.004c.2-.211.293-.494.329-.795.027-.226.022-.461.007-.682l-.018-.215a4.65 4.65 0 0 0-.174-.938c-.09-.288-.222-.556-.419-.76l-.04-.04c-.006-.006-.012-.007-.017-.007s-.012.004-.016.009-.008.011-.008.017l.001.009.006.009c.231.227.374.54.467.874.07.251.111.514.14.762l.024.242c.024.269.022.541-.016.808l-.019.114c-.03.163-.09.317-.179.454l-.04.057c-.007.01-.016.017-.027.021s-.022.002-.032-.001a.148.148 0 0 1-.058-.045.952.952 0 0 1-.116-.183 3.35 3.35 0 0 1-.112-.24c.055.171.132.323.239.463l.056.069c.003.004.01.005.016.003zM14.45 2.554c.087-.359.018-.761-.126-1.144a4.454 4.454 0 0 0-.548-1.005l-.084-.113V.291l-.003.001-.003.004v.003c.349.535.681 1.101.765 1.756l.013.132c.009.121.005.245-.014.366zm-.303-.072-.036-.028.053.042-.017-.014z" style="fill:var(--color1, #e4c07a)"/><path fill="#e4c07a" d="m12.732 3.833.008-.005c.225-.185.36-.452.443-.744.063-.219.096-.452.118-.674l.018-.218a7.057 7.057 0 0 0-.13-1.966L13.16.099c-.001-.005-.004-.007-.005-.008L13.147.09a.016.016 0 0 0-.008.006L13.137.1v.006c.122.519.165 1.06.164 1.594l-.003.228a4.897 4.897 0 0 1-.104.978c-.071.307-.191.597-.395.813l-.042.042c-.01.009-.021.015-.034.016s-.024-.002-.036-.008a.227.227 0 0 1-.067-.06 1.305 1.305 0 0 1-.136-.227 4.577 4.577 0 0 1-.156-.352l-.019-.051a3.946 3.946 0 0 1-.152-.93l-.008-.134a7.862 7.862 0 0 1 .126-1.844c-.139.542-.176 1.116-.163 1.679l.009.251c.014.294.045.629.131.939.08.29.208.557.415.747l.043.037a.022.022 0 0 0 .014.006l.006-.001z" style="fill:var(--color1, #e4c07a)"/><path fill="#e4c07a" d="m11.917 3.534.004-.003c.12-.141.206-.29.27-.46-.024.055-.054.12-.086.181a.91.91 0 0 1-.113.173.147.147 0 0 1-.059.042.058.058 0 0 1-.032.001c-.005-.002-.011-.004-.015-.007l-.013-.012a.95.95 0 0 1-.185-.377l-.034-.135a2.59 2.59 0 0 1-.048-.693l.013-.229c.022-.311.067-.669.162-1.005.089-.315.224-.611.428-.831l.042-.043c.006-.006.008-.012.008-.018s-.003-.012-.008-.017-.011-.008-.016-.009l-.008.001-.009.006c-.221.211-.363.494-.457.801-.071.23-.115.472-.147.707l-.028.231a3.876 3.876 0 0 0-.013.897c.035.284.121.553.296.755l.036.04c.005.005.011.006.016.004zM10.991 2.559a1.318 1.318 0 0 1-.016-.243l.003-.102c.03-.605.33-1.15.644-1.643l.134-.208.001-.003-.003-.004-.003-.001-.001.001a4.67 4.67 0 0 0-.626 1.087c-.147.376-.222.77-.132 1.116zM12.726 2.346c.203-.317.309-.698.317-1.078V1.19a2.686 2.686 0 0 0-.066-.586 1.022 1.022 0 0 0-.251-.492c-.126.124-.205.3-.251.492-.036.146-.053.3-.061.445l-.005.141c-.006.406.1.817.317 1.156z" style="fill:var(--color1, #e4c07a)"/><path fill="#e4c07a" d="M12.668 2.341c.014-.021.027-.044.04-.066a2.22 2.22 0 0 1-.271-1.005l-.002-.079c-.001-.12.009-.24.025-.359l.018-.118c.008-.049.04-.191.084-.323a1.06 1.06 0 0 1 .074-.177.265.265 0 0 1 .043-.06.084.084 0 0 1 .048-.027l-.012-.016a.026.026 0 0 1 .001-.033.027.027 0 0 1 .016-.008l.01.002.008.006.009.01a.03.03 0 0 0-.027-.024h-.021c-.049.004-.093.038-.132.094a.921.921 0 0 0-.112.25 2.892 2.892 0 0 0-.088.41l-.011.086c-.062.511.042 1.01.3 1.442l.003-.004zm.118.003a2.54 2.54 0 0 0 .308-1.119c.012-.335-.051-.665-.215-.928.143.27.19.598.169.926-.024.38-.139.761-.303 1.053l.039.066.001.003zm-.045-.01-.015-.025-.015.025h.03zm-.015.08a.032.032 0 0 0 .023-.01l.006-.008.017-.029h-.094l.017.029c.008.013.02.018.03.018zM17.369 12.981c.008 0 .016-.003.021-.008s.009-.012.009-.024v-.002l-.008.015c-.004.007-.01.012-.017.013s-.014 0-.019-.003a.028.028 0 0 1-.013-.024l.003-.011c.018-.035.036-.076.056-.119.008-.25.042-.523.126-.767.093-.27.25-.506.502-.637l.052-.025c.208-.091.406-.074.571.01s.296.233.372.405.098.369.042.547a.66.66 0 0 1-.254.343.544.544 0 0 1-.065.108c.267-.138.47-.381.437-.707l-.011-.074c-.073-.355-.309-.646-.638-.739l-.067-.016c-.218-.042-.397 0-.544.095s-.262.247-.35.426c-.154.313-.223.708-.234 1.029l-.001.133c0 .012.004.019.01.024s.013.008.021.008zm1.318-.251a1.01 1.01 0 0 0 .098-.057.582.582 0 0 0 .018-.389.605.605 0 0 0-.348-.408l-.035-.011c-.273-.079-.485.092-.656.338-.1.144-.183.311-.254.462.028-.054.057-.109.087-.162.072-.128.151-.25.249-.36l.043-.046c.181-.184.471-.255.682-.094l.041.035c.1.096.156.238.162.379a.51.51 0 0 1-.088.314zm-.001.091a.49.49 0 0 0 .069-.09.808.808 0 0 1-.093.047l.024.043zm-.03.023.004-.001a1.255 1.255 0 0 0-.028-.05l-.001.001c-.009.008-.01.023-.003.036.006.01.013.015.021.015l.007-.001z" style="fill:var(--color1, #e4c07a)"/><path fill="#e4c07a" d="M17.368 12.981a.03.03 0 0 0 .021-.008c.003-.002.005-.006.007-.01l.003-.015c.005-.34-.058-.805-.234-1.163a1.036 1.036 0 0 0-.349-.425.693.693 0 0 0-.465-.106l-.08.012c-.342.066-.594.339-.688.685l-.017.07c-.075.364.139.634.428.782a.5.5 0 0 1-.058-.101.662.662 0 0 1-.27-.34.727.727 0 0 1 .036-.528c.145-.323.501-.57.912-.459l.04.012c.291.095.462.357.561.657.083.253.114.536.122.775l.056.117a.027.027 0 0 1-.01.035c-.005.003-.012.005-.019.003a.02.02 0 0 1-.01-.005l-.007-.009-.008-.015v.002l.003.015a.022.022 0 0 0 .007.009.03.03 0 0 0 .021.008zm-1.321-.253c-.119-.161-.097-.366-.018-.545l.019-.041a.387.387 0 0 1 .312-.225.608.608 0 0 1 .331.066l.044.023a.962.962 0 0 1 .324.337 1.574 1.574 0 0 0-.083-.129c-.148-.208-.335-.359-.598-.355l-.054.003c-.203.018-.338.193-.387.402a.706.706 0 0 0 .025.416.839.839 0 0 0 .084.048zm.028.05a.985.985 0 0 1-.086-.043c.018.031.038.06.062.085l.023-.042zm.006.066c.01.004.021 0 .028-.014.005-.01.006-.021.002-.029l-.005-.007-.002-.001a1.255 1.255 0 0 1-.028.05l.004.001z" style="fill:var(--color1, #e4c07a)"/><path fill="#e4c07a" d="M17.173 11.879a.028.028 0 0 0 .02-.022v-.013a3.811 3.811 0 0 1-.073-.775c.01-.247.067-.487.22-.68l.032-.038.013.011.012.011-.003.005c0 .002.003.007.009.014l.025.028.034.042a.937.937 0 0 1 .112.218l.027.077c.069.216.075.448.052.676.018-.136.027-.275.02-.41-.013-.256-.083-.5-.249-.693l-.034-.038c-.01-.011-.027-.011-.039.001-.2.191-.288.458-.308.74a2.41 2.41 0 0 0 .075.733l.026.095c.003.01.008.015.013.018s.011.003.017.001zM15.57 15.408a.702.702 0 0 1 .135-.143c.051-.525.32-.952.624-1.362l.151-.2c.283-.37.595-.777.588-1.265-.08.542-.413.942-.738 1.341l-.143.177c-.339.429-.592.894-.618 1.452zm.16.066a.689.689 0 0 1 .342-.194c.076-.022.155-.039.23-.056a2.11 2.11 0 0 0 .162-.043l.05-.018c.274-.107.507-.291.69-.528l.036-.048c.159-.22.226-.512.241-.811a3.444 3.444 0 0 0-.052-.748l-.017-.093c-.003-.016-.011-.025-.019-.029s-.02-.006-.032-.002a.05.05 0 0 0-.036.06l-.008.002v.001l-.002.015-.003.04-.003.035a.872.872 0 0 0-.009.163l.002.167c-.013.451-.007.864-.288 1.222l-.06.071c-.211.231-.488.343-.771.417l-.122.03a.859.859 0 0 0-.324.156 1.715 1.715 0 0 0-.007.191zm1.574-2.504a.013.013 0 0 0 .01-.004l-.005.001c-.004-.022-.007-.015-.009.002l.004.001zm-1.607 2.503a1.71 1.71 0 0 1 .005-.161.637.637 0 0 0-.114.13l.109.031zm-.083.087c.023.006.049 0 .067-.021l.007-.01a.255.255 0 0 1 .014-.021l-.134-.038-.001.024.001.013a.061.061 0 0 0 .046.052z" style="fill:var(--color1, #e4c07a)"/><path fill="#e4c07a" d="M19.175 15.406c-.025-.498-.229-.915-.513-1.308l-.061-.083c-.096-.127-.198-.25-.297-.373s-.196-.247-.284-.376a2.013 2.013 0 0 1-.352-.837c-.014.404.204.756.436 1.075l.104.14c.368.492.749.976.815 1.607.058.042.11.092.153.155zm-.177.07a1.782 1.782 0 0 0-.008-.208.959.959 0 0 0-.137-.076 1.598 1.598 0 0 0-.198-.07l-.202-.053a1.479 1.479 0 0 1-.539-.28l-.067-.056c-.191-.166-.275-.371-.353-.588l-.081-.221a.061.061 0 0 0-.048-.036c-.01-.001-.018.001-.024.006a.03.03 0 0 0-.009.01l-.006.017c-.073.405.192.766.487 1.007l.059.047c.139.106.303.18.468.234l.071.022c.052.015.109.028.167.041s.117.028.174.048a.552.552 0 0 1 .246.155zm.158-.039a.611.611 0 0 0-.13-.142c.005.058.006.117.005.177l.125-.035zm-.031.131a.069.069 0 0 0 .052-.059l.001-.014-.001-.029-.153.044.017.024a.074.074 0 0 0 .084.034zM17.336 16.126a.53.53 0 0 1 .036-.099.7.7 0 0 0-.109-.154l-.043-.045c-.235-.24-.449-.456-.537-.81-.003-.011-.011-.015-.02-.014s-.017.008-.017.02l.003.073a.764.764 0 0 0 .146.383l.044.058c.039.048.09.098.145.149s.114.105.168.161c.08.083.151.175.184.276zm.105-.011c.031-.1.097-.19.171-.274.052-.058.109-.114.162-.168.04-.04.078-.08.11-.118l.03-.038a.952.952 0 0 0 .149-.29 1.362 1.362 0 0 1-.356.487l-.086.077a.883.883 0 0 0-.211.238.47.47 0 0 1 .031.087zm-.02.104a.483.483 0 0 0-.03-.152.446.446 0 0 0-.034.152h.065zm-.032.051a.036.036 0 0 0 .023-.008c.003-.002.005-.006.007-.01h-.059a.022.022 0 0 0 .007.009.039.039 0 0 0 .023.009z" style="fill:var(--color1, #e4c07a)"/><path fill="#e4c07a" d="M17.351 15.036a.726.726 0 0 0 .414-.147l.045-.039c.008-.008.008-.02 0-.031-.004-.005-.008-.008-.012-.01s-.007 0-.012.003a.803.803 0 0 1-.43.152.618.618 0 0 1-.426-.122c.094.142.255.198.422.193zM19.063 15.517c.019 0 .038-.006.051-.019s.023-.032.023-.061l-.001-.04c-.011-.199-.118-.364-.256-.513a3.63 3.63 0 0 0-.237-.227 5.66 5.66 0 0 1-.175-.16l-.052-.053a3.537 3.537 0 0 1-.536-.738l-.061-.116c-.179-.358-.199-.729-.181-1.118-.117.512-.059.952.188 1.405l.054.094c.128.213.278.409.44.595l.07.079c.049.055.109.11.171.167s.127.117.187.18c.112.118.207.252.23.411l.003.032c.004.054.044.081.082.081zM15.674 15.517a.08.08 0 0 0 .078-.062l.003-.019a.69.69 0 0 1 .195-.398c.05-.057.105-.111.16-.162l.155-.145c.149-.148.282-.313.407-.485l.121-.175c.338-.503.439-1.013.305-1.6.016.37-.009.704-.149 1.046l-.031.072c-.128.28-.314.529-.511.757l-.085.097c-.066.074-.145.145-.226.218s-.163.146-.237.224c-.148.157-.261.331-.259.552l.002.02a.077.077 0 0 0 .022.041.074.074 0 0 0 .051.019zM8.479 12.981c.008 0 .016-.003.021-.008s.009-.012.009-.024v-.002l-.008.015-.007.009a.031.031 0 0 1-.01.005.03.03 0 0 1-.019-.003.028.028 0 0 1-.013-.024l.003-.011c.018-.035.036-.076.056-.119.008-.25.042-.523.126-.767.093-.27.249-.506.502-.637l.052-.025c.208-.091.406-.074.571.01s.296.233.372.405.098.369.042.547a.66.66 0 0 1-.254.343.544.544 0 0 1-.065.108c.267-.138.47-.381.437-.707l-.011-.074c-.073-.355-.309-.646-.638-.739l-.067-.016c-.218-.042-.397 0-.544.095s-.262.247-.35.426c-.154.313-.223.708-.234 1.029l-.001.133c0 .012.004.019.01.024s.013.008.021.008zm1.317-.251a1.01 1.01 0 0 0 .098-.057.582.582 0 0 0 .018-.389.605.605 0 0 0-.348-.408l-.035-.011c-.273-.079-.485.092-.656.338-.1.144-.183.311-.254.462.028-.054.057-.109.087-.162.072-.128.151-.25.249-.36l.043-.046c.181-.184.471-.255.682-.094l.041.035c.1.096.156.238.162.379a.51.51 0 0 1-.088.314zm-.001.091a.544.544 0 0 0 .07-.09.808.808 0 0 1-.093.047.872.872 0 0 1 .023.042zm-.029.023.004-.001a1.255 1.255 0 0 0-.028-.05l-.001.001c-.009.008-.01.023-.003.036.005.01.013.015.021.015l.008-.001z" style="fill:var(--color1, #e4c07a)"/><path fill="#e4c07a" d="M8.478 12.981a.03.03 0 0 0 .021-.008c.003-.002.005-.006.007-.01l.003-.015c.005-.34-.059-.805-.234-1.163a1.036 1.036 0 0 0-.349-.425.698.698 0 0 0-.465-.106l-.08.012c-.342.066-.594.339-.688.685l-.017.07c-.075.364.139.634.428.782a.5.5 0 0 1-.058-.101.662.662 0 0 1-.27-.34.727.727 0 0 1 .036-.528c.145-.323.501-.57.912-.459l.04.012c.291.095.462.357.56.657.083.253.114.536.122.775l.056.117a.027.027 0 0 1-.01.035c-.005.003-.012.005-.019.003a.02.02 0 0 1-.01-.005l-.007-.009-.008-.015v.002l.003.015a.035.035 0 0 0 .006.009.03.03 0 0 0 .021.008zm-1.321-.253c-.119-.161-.097-.366-.018-.545l.019-.041a.387.387 0 0 1 .312-.225.608.608 0 0 1 .331.066l.044.023a.97.97 0 0 1 .323.335 1.827 1.827 0 0 0-.081-.127c-.148-.208-.335-.359-.598-.355l-.054.003c-.203.018-.338.193-.387.402a.702.702 0 0 0 .025.415.839.839 0 0 0 .084.048zm.028.05a.985.985 0 0 1-.086-.043c.018.031.038.06.062.085l.023-.042zm.006.066c.01.004.021 0 .028-.014.005-.01.006-.021.002-.029l-.005-.007-.002-.001a1.255 1.255 0 0 1-.028.05l.004.001z" style="fill:var(--color1, #e4c07a)"/><path fill="#e4c07a" d="M8.283 11.879a.028.028 0 0 0 .02-.022v-.013c-.04-.238-.084-.512-.073-.775s.075-.519.252-.719l.025.022c-.003.003-.003.005-.002.005a1.152 1.152 0 0 0 .034.042l.034.042a.937.937 0 0 1 .112.218l.027.077c.069.216.075.448.052.676.018-.136.027-.275.02-.41-.013-.256-.083-.5-.249-.693l-.034-.038a.026.026 0 0 0-.029-.006l-.01.006c-.2.191-.288.458-.308.74a2.41 2.41 0 0 0 .075.733l.026.095c.003.01.008.015.013.018s.011.003.017.001zM6.68 15.408a.702.702 0 0 1 .135-.143c.052-.525.32-.952.624-1.362l.151-.2c.283-.37.595-.777.588-1.265-.08.542-.413.942-.738 1.341l-.143.177c-.339.429-.592.894-.618 1.452zm.16.066a.689.689 0 0 1 .342-.194c.076-.022.155-.039.23-.056.057-.013.112-.027.162-.043l.049-.018c.274-.107.507-.291.69-.528l.036-.048c.158-.22.226-.512.241-.811a3.444 3.444 0 0 0-.052-.748l-.017-.093c-.003-.016-.011-.025-.019-.029s-.02-.005-.031-.002a.05.05 0 0 0-.036.06l-.008.002v.001l-.002.015-.003.04-.003.035a.872.872 0 0 0-.009.163l.001.167c-.013.451-.007.864-.288 1.222l-.06.071c-.211.231-.488.343-.771.417l-.122.03a.859.859 0 0 0-.324.156 1.715 1.715 0 0 0-.007.191zm1.574-2.504a.013.013 0 0 0 .01-.004l-.005.001c-.004-.022-.007-.015-.009.002l.004.001zm-1.608 2.503a1.71 1.71 0 0 1 .005-.161.665.665 0 0 0-.114.13l.109.031zm-.082.087c.023.006.049 0 .067-.021l.007-.01a.255.255 0 0 1 .014-.021l-.134-.038-.001.024.001.013a.061.061 0 0 0 .046.052z" style="fill:var(--color1, #e4c07a)"/><path fill="#e4c07a" d="M10.285 15.406c-.025-.498-.229-.915-.513-1.308l-.062-.083c-.096-.127-.197-.25-.297-.373s-.197-.247-.284-.376a2.013 2.013 0 0 1-.352-.837c-.014.404.204.756.436 1.075l.103.14c.368.493.75.976.815 1.607.058.042.11.092.153.155zm-.177.07a1.782 1.782 0 0 0-.008-.208.959.959 0 0 0-.137-.076 1.598 1.598 0 0 0-.198-.07l-.202-.053a1.479 1.479 0 0 1-.539-.28l-.067-.056c-.191-.166-.275-.371-.354-.588l-.081-.221a.06.06 0 0 0-.048-.036c-.01-.001-.018.001-.024.006a.03.03 0 0 0-.009.01l-.006.017c-.073.405.192.766.487 1.007l.059.047c.139.106.303.18.469.234l.071.022c.052.015.109.028.167.041s.117.028.174.048a.558.558 0 0 1 .246.155zm.096-.021.062-.018a.611.611 0 0 0-.13-.142c.005.058.006.117.005.178l.063-.018zm.031.113a.069.069 0 0 0 .052-.059l.001-.014-.001-.029-.074.021-.079.023.017.024c.02.032.054.042.084.034zM8.446 16.126a.53.53 0 0 1 .036-.099.7.7 0 0 0-.109-.154l-.043-.045c-.221-.225-.423-.429-.519-.745l-.018-.065c-.003-.011-.011-.015-.02-.014s-.017.008-.017.02c0 .176.053.32.149.457l.044.058c.039.048.09.098.145.149s.114.105.168.161c.08.083.151.175.184.276zm.105-.011c.031-.1.096-.19.171-.274.052-.058.109-.114.162-.168.04-.04.078-.08.11-.118l.031-.038a.95.95 0 0 0 .151-.295 1.34 1.34 0 0 1-.358.491l-.086.077a.883.883 0 0 0-.211.238.47.47 0 0 1 .031.087zm-.02.104a.483.483 0 0 0-.03-.152.477.477 0 0 0-.035.152h.065zm-.032.051a.036.036 0 0 0 .023-.008c.003-.002.005-.006.007-.01H8.47a.022.022 0 0 0 .007.009.036.036 0 0 0 .023.009z" style="fill:var(--color1, #e4c07a)"/><path fill="#e4c07a" d="M8.461 15.036a.726.726 0 0 0 .414-.147l.045-.039c.008-.008.008-.02 0-.031a.035.035 0 0 0-.012-.01h-.006l-.007.003a.812.812 0 0 1-.43.153.618.618 0 0 1-.426-.122c.094.142.255.198.422.193zM10.173 15.517c.019 0 .038-.006.051-.019s.023-.032.023-.061l-.001-.04c-.011-.199-.118-.364-.256-.513a3.63 3.63 0 0 0-.237-.227 5.66 5.66 0 0 1-.175-.16l-.052-.053a3.537 3.537 0 0 1-.536-.738l-.061-.116c-.179-.358-.199-.729-.181-1.118-.117.512-.059.952.188 1.405l.054.094c.128.213.278.409.44.595l.07.079c.049.055.109.11.171.167s.127.117.187.18c.112.118.207.252.229.411l.003.032c.004.054.044.081.082.081zM6.784 15.517a.082.082 0 0 0 .079-.062l.003-.019a.69.69 0 0 1 .195-.398c.05-.057.106-.111.16-.162l.155-.145c.149-.148.282-.313.407-.485l.121-.174c.338-.503.439-1.012.305-1.599.016.37-.009.703-.149 1.046l-.031.072c-.128.28-.314.529-.511.757l-.085.097c-.066.074-.145.145-.226.218s-.163.146-.238.224c-.148.157-.261.331-.259.552l.002.02a.07.07 0 0 0 .022.041.074.074 0 0 0 .051.019zM12.897 10.409c.115.003.216-.061.295-.157a.733.733 0 0 0 .153-.353l.005-.051a.532.532 0 0 0-.523-.569l-.064.001a.456.456 0 0 0-.329.168c-.086.105-.127.248-.125.389s.05.28.138.378a.411.411 0 0 0 .219.128.428.428 0 0 1-.198-.118c-.087-.091-.134-.217-.142-.345s.025-.26.101-.364a.464.464 0 0 1 .297-.184l.058-.008c.271-.023.471.171.506.435l.005.053a.548.548 0 0 1-.082.309l-.026.038a.282.282 0 0 1-.169.111c-.03.008-.061.012-.092.018l-.047.009-.047.012a.045.045 0 0 0-.022.016l.032-.001c.009-.001.017.002.022.009s.007.013.007.02l-.001.005.022-.018.027-.022v.035l-.001.017a.078.078 0 0 1-.019.036zm-.06-.023-.027.001.001.002a.03.03 0 0 0 .012.007l.013-.011z" style="fill:var(--color1, #e4c07a)"/><path fill="#e4c07a" d="m12.772 10.151.044-.003h.001l.016-.001h.013c.068 0 .118-.018.156-.044s.064-.062.082-.099a.423.423 0 0 0 .038-.17c0-.075-.02-.156-.067-.217s-.12-.104-.231-.104l-.028.001c-.141.009-.213.072-.251.14a.378.378 0 0 0-.041.183c.002.077.025.156.07.216s.109.099.198.099zM12.903 11.614a.435.435 0 0 0 .341-.177.804.804 0 0 0 .171-.395l.005-.058a.603.603 0 0 0-.592-.645h-.037a.523.523 0 0 0-.41.192c-.098.12-.145.281-.142.442s.056.318.157.43c.064.07.147.123.249.146a.488.488 0 0 1-.227-.135c-.099-.103-.153-.247-.162-.393s.029-.297.115-.415a.528.528 0 0 1 .339-.21l.067-.009c.31-.026.539.196.579.498l.005.061a.63.63 0 0 1-.094.355l-.029.043a.342.342 0 0 1-.191.129c-.034.01-.07.016-.105.022l-.054.01-.054.013a.036.036 0 0 0-.022.016l.032-.001c.009-.001.017.002.022.009s.007.013.007.02l-.001.005.022-.018.027-.022v.035l-.002.018a.082.082 0 0 1-.017.035zm-.062-.023-.026.002.001.001c.003.003.008.005.012.007l.013-.01z" style="fill:var(--color1, #e4c07a)"/><path fill="#e4c07a" d="m12.767 11.356.053-.004h.001l.017-.001h.013c.135 0 .22-.06.271-.138s.07-.175.07-.248c0-.092-.024-.191-.082-.266s-.148-.128-.284-.128l-.034.001a.36.36 0 0 0-.282.136.4.4 0 0 0-.075.227v.034c.003.094.031.191.086.264s.136.122.247.122zM12.911 13.061c.167.004.311-.081.419-.21s.18-.3.202-.466l.006-.071a.718.718 0 0 0-.632-.765l-.074-.006c-.242-.008-.42.086-.536.229s-.174.337-.17.53.067.381.189.516c.071.079.163.14.275.17a.585.585 0 0 1-.251-.156c-.119-.124-.185-.298-.195-.474s.035-.359.139-.501a.65.65 0 0 1 .448-.261l.041-.004c.374-.032.653.237.702.603l.007.074a.76.76 0 0 1-.115.432l-.036.053a.417.417 0 0 1-.228.158 1.127 1.127 0 0 1-.128.029l-.133.025a.034.034 0 0 0-.022.017l.033-.002c.009-.001.017.002.022.009s.007.013.007.02l-.001.005.022-.018.027-.022v.035l-.002.017a.073.073 0 0 1-.016.033zm-.063-.021-.026.002.001.001a.03.03 0 0 0 .012.007l.013-.011z" style="fill:var(--color1, #e4c07a)"/><path fill="#e4c07a" d="M12.758 12.807a.562.562 0 0 0 .07-.005h.001l.017-.001h.013c.156 0 .269-.064.342-.158s.109-.222.109-.349l-.002-.049a.551.551 0 0 0-.114-.307.45.45 0 0 0-.365-.161l-.043.001a.474.474 0 0 0-.37.179.528.528 0 0 0-.098.298v.045c.004.127.044.254.119.349s.183.157.323.157zM13.307 10.058l.009-.011c.526-.9.744-1.919.679-2.964l-.017-.209c-.089-.916-.39-1.881-1.071-2.488l-.067-.057c-.011-.009-.02-.012-.028-.012a.035.035 0 0 0-.013.003l-.015.01c-.664.55-.962 1.416-1.091 2.276l-.023.172a5.103 5.103 0 0 0 .49 2.918 5.41 5.41 0 0 1-.472-2.527l.014-.2c.077-.895.358-1.842 1.003-2.464l.063-.059c.027-.025.062-.023.096-.008s.07.045.107.083c.075.078.161.196.241.322.121.189.235.398.297.519l.043.088c.171.389.267.816.325 1.24l.022.181a5.257 5.257 0 0 1-.588 3.053l-.049.089c-.01.019-.003.036.011.044a.036.036 0 0 0 .022.005l.01-.004z" style="fill:var(--color1, #e4c07a)"/><path fill="#e4c07a" d="m13.217 9.499.009-.011c.386-.659.606-1.553.57-2.414-.034-.834-.308-1.635-.898-2.164l-.058-.05c-.011-.009-.02-.012-.028-.012a.03.03 0 0 0-.013.003l-.015.01c-.628.526-.913 1.351-.942 2.209a4.62 4.62 0 0 0 .435 2.112 4.81 4.81 0 0 1-.386-2.039c.027-.799.274-1.574.823-2.114l.054-.052c.023-.021.052-.022.081-.011s.057.033.087.063c.06.059.127.15.191.248.096.147.185.31.235.407l.035.072c.153.337.234.712.28 1.081l.018.158a4.182 4.182 0 0 1-.447 2.32l-.075.141c-.01.019-.003.036.011.045a.036.036 0 0 0 .022.005l.01-.004zM13.354 11.254c.477-.152.87-.558 1.128-1.001l.05-.089c.144-.268.274-.612.342-.966.064-.332.074-.671-.009-.964l-.018-.058a.026.026 0 0 0-.011-.014l-.006-.003-.005.001a2.11 2.11 0 0 0-.663.426l.011-.008.083-.056c.065-.043.146-.094.224-.144l.212-.135.068-.044.018-.012.004-.003-.001.001-.002.003a.014.014 0 0 0-.001.012l.032-.009c.077.265.048.568.004.839l-.019.114c-.074.417-.232.86-.475 1.232-.228.349-.53.636-.909.779l-.077.027c-.021.007-.029.027-.023.048.003.01.008.018.015.023a.021.021 0 0 0 .011.004l.015-.002z" style="fill:var(--color1, #e4c07a)"/><path fill="#e4c07a" d="M13.208 10.168s.628-1.17 1.453-1.541c0 0-.042 1.472-1.279 2.455z" style="fill:var(--color1, #e4c07a)"/><path fill="none" stroke="#e4c07a" stroke-miterlimit="10" stroke-width=".333" d="M13.208 10.168s.628-1.17 1.453-1.541c0 0-.042 1.472-1.279 2.455" style="stroke:var(--color1, #e4c07a)"/><path fill="#e4c07a" d="M12.297 11.252a.042.042 0 0 0 .015-.023c.004-.016.001-.031-.01-.041l-.013-.007c-.759-.241-1.199-1.032-1.403-1.787l-.038-.15c-.071-.307-.115-.662-.052-.981l.014-.063.032.008v-.007l-.001-.003.001.001.012.01.05.032c.043.026.102.059.164.093l.18.1.071.041.046.03.03.023a2.092 2.092 0 0 0-.497-.322l-.1-.044a.012.012 0 0 0-.011.002l-.006.006-.004.008c-.099.299-.092.635-.029.965.055.289.151.572.254.822l.044.104c.219.504.668.988 1.176 1.17l.049.017c.011.004.02.002.026-.003z" style="fill:var(--color1, #e4c07a)"/><path fill="#e4c07a" d="M12.417 10.168s-.628-1.17-1.453-1.541c0 0 .042 1.472 1.279 2.455z" style="fill:var(--color1, #e4c07a)"/><path fill="none" stroke="#e4c07a" stroke-miterlimit="10" stroke-width=".333" d="M12.417 10.168s-.628-1.17-1.453-1.541c0 0 .042 1.472 1.279 2.455" style="stroke:var(--color1, #e4c07a)"/><path fill="#e4c07a" d="m12.753 8.92.023-.002.009-.001h.008c.035 0 .061-.009.079-.022s.032-.031.041-.05a.236.236 0 0 0 .02-.088c0-.039-.01-.081-.034-.112s-.061-.053-.118-.053h-.015c-.073.004-.11.037-.128.071a.194.194 0 0 0-.021.077v.018c.001.04.013.081.036.111s.055.05.101.05zM12.753 8.256l.023-.002.009-.001h.008c.035 0 .061-.009.079-.022s.032-.031.041-.05a.236.236 0 0 0 .02-.088c0-.039-.01-.081-.034-.112s-.061-.053-.118-.053h-.015c-.073.004-.11.037-.128.071a.194.194 0 0 0-.021.077v.018c.001.04.013.081.036.111s.055.05.101.05zM12.753 7.592l.023-.002.009-.001h.008c.035 0 .061-.009.079-.022s.032-.031.041-.05a.236.236 0 0 0 .02-.088c0-.039-.01-.081-.034-.112s-.061-.053-.118-.053h-.015c-.073.004-.11.037-.128.071a.194.194 0 0 0-.021.077v.018c.001.04.013.081.036.111s.055.05.101.05zM12.753 6.928l.023-.002.009-.001h.008c.035 0 .061-.009.079-.022s.032-.031.041-.05a.236.236 0 0 0 .02-.088c0-.039-.01-.081-.034-.112s-.061-.053-.118-.053h-.015c-.073.004-.11.037-.128.071a.194.194 0 0 0-.021.077v.018c.001.04.013.081.036.111s.055.05.101.05zM12.753 6.264l.023-.002.009-.001h.008c.035 0 .061-.009.079-.022s.032-.031.041-.05a.216.216 0 0 0 .02-.088c0-.039-.01-.081-.034-.112s-.061-.053-.118-.053h-.015c-.073.004-.11.037-.128.071a.194.194 0 0 0-.021.077v.018c.001.04.013.081.036.112s.055.05.101.05zM12.753 5.6l.023-.002.009-.001h.008c.035 0 .061-.009.079-.022s.032-.031.041-.05a.236.236 0 0 0 .02-.088c0-.039-.01-.081-.034-.112s-.061-.053-.118-.053h-.015c-.073.005-.11.037-.128.071a.194.194 0 0 0-.021.077v.018c.001.04.013.081.036.112s.055.05.101.05zM8.498 11.897c.155-.424.154-.732.113-.935a.898.898 0 0 0-.112-.289v-.001.001a.898.898 0 0 0-.112.289c-.041.203-.043.511.113.935zM17.372 11.894c.154-.422.152-.729.112-.932a.898.898 0 0 0-.112-.289.898.898 0 0 0-.112.289c-.041.203-.043.51.111.932l.001-.004.001.004zM24.988 14.933a.056.056 0 0 0 .028-.025c.012-.022.012-.05-.006-.068l-.009-.007c-.079-.05-.146-.134-.196-.234s-.085-.218-.101-.337c-.029-.222.009-.453.145-.586l.028-.025.001-.001c-.205.108-.272.366-.243.632.015.133.053.265.108.38.049.1.11.185.179.243l.03.023a.04.04 0 0 0 .036.007zM22.124 14.076c.291.199.668.283 1.037.234l.036-.043a1.465 1.465 0 0 1-1.051-.219 1.157 1.157 0 0 1-.513-.931l-.001-.084c0-.007-.002-.011-.005-.013s-.007-.004-.012-.004-.009.002-.012.004a.022.022 0 0 0-.004.005l-.002.009c-.009.47.208.826.526 1.043zm1.149.209c.004-.006.003-.013 0-.019s-.009-.009-.015-.009l.008.014.007.013zm-.032.012-.005-.01-.005-.009-.021.024.031-.005zm.342 1.966c.003-.002.006-.007.008-.012s.001-.011-.001-.014l-.003-.005-.007-.003a.688.688 0 0 1-.397-.3 1.375 1.375 0 0 1-.18-.416l-.015-.062c-.086-.388-.009-.817.245-1.118l-.053.009c-.218.28-.287.643-.243 1.003l.011.079c.03.18.098.368.202.522a.774.774 0 0 0 .357.3l.064.021c.006.001.009 0 .012-.002zM22.328 14.923l.001-.002a1.668 1.668 0 0 1-.887-.517 1.324 1.324 0 0 1-.356-.957l.006-.074c.001-.007-.001-.01-.003-.012s-.005-.004-.01-.004a.023.023 0 0 0-.019.011l-.002.009c-.046.399.104.766.355 1.048.238.269.567.461.901.531l.014-.033zm.058.036c.003-.005.003-.013.001-.02a.016.016 0 0 0-.004-.007l-.005-.003-.019-.004.02.05.007-.017zm.548 2.127c.004 0 .008-.002.012-.006s.006-.009.006-.013l-.001-.006-.004-.007a2.393 2.393 0 0 1-.594-.97c-.112-.358-.128-.742.016-1.085l-.008-.001-.027-.005c-.14.346-.127.73-.017 1.092.109.358.313.694.556.947l.049.05a.02.02 0 0 0 .012.005z" style="fill:var(--color1, #e4c07a)"/><path fill="#e4c07a" d="M22.37 14.964c.224-.169.45-.332.673-.501l.221-.171c.009-.007.01-.02.005-.03-.003-.005-.006-.008-.008-.008h-.004l-.006.003a18.05 18.05 0 0 1-.446.339l-.449.334c-.009.007-.01.019-.005.029.003.005.006.007.009.008h.004l.006-.003zM22.313 15.219c.107-.076.217-.148.329-.217l.336-.203c.005-.003.008-.007.008-.011s0-.009-.003-.014c-.003-.005-.006-.008-.01-.009l-.005-.001-.007.002c-.169.1-.337.2-.5.308l-.162.111-.005.006a.024.024 0 0 0 0 .023c.003.005.006.008.009.009h.004l.007-.003zM22.263 15.454c.106-.081.219-.149.332-.216.085-.05.169-.099.251-.153l.081-.055a.02.02 0 0 0 .005-.028c-.003-.005-.006-.008-.009-.009s-.006-.001-.011.003c-.108.077-.222.143-.335.209-.085.05-.169.1-.249.156l-.079.058a.023.023 0 0 0-.005.03c.003.005.006.007.009.008h.004l.006-.003zM22.256 15.665c.08-.033.152-.08.224-.132l.072-.052c.061-.044.124-.085.187-.125l.094-.06.092-.062c.009-.006.011-.018.005-.028-.003-.005-.006-.008-.009-.009h-.004l-.007.003a5.96 5.96 0 0 1-.226.153l-.078.047c-.06.035-.114.077-.172.118a.99.99 0 0 1-.135.085l-.049.023c-.01.004-.015.016-.011.027a.015.015 0 0 0 .007.011l.003.001.007-.001zM22.312 15.913c.102-.079.21-.149.317-.218.081-.052.16-.104.237-.161l.075-.058c.009-.007.01-.02.004-.031a.02.02 0 0 0-.008-.008h-.003l-.006.003a3.506 3.506 0 0 1-.315.221c-.081.052-.161.103-.238.159l-.076.057c-.009.007-.01.02-.005.03.003.005.006.007.009.008h.004l.006-.003zM22.377 16.17c.18-.097.339-.229.489-.372l.148-.146c.008-.008.007-.018 0-.026-.004-.004-.008-.006-.012-.006l-.005.001-.006.004c-.167.17-.341.337-.543.462l-.088.051c-.005.003-.007.007-.008.01s0 .009.003.014.007.008.011.01l.006.001.007-.002zM22.463 16.39c.081-.054.156-.118.228-.186l.071-.069c.053-.053.1-.111.148-.17.036-.044.072-.089.112-.13l.041-.041c.005-.004.006-.009.006-.012s-.002-.009-.006-.012c-.004-.004-.008-.006-.012-.006l-.006.001-.007.004c-.045.043-.084.09-.124.14l-.06.074-.063.072a2.07 2.07 0 0 1-.345.303c-.009.006-.011.017-.005.027.003.005.006.008.009.009h.005l.007-.003zM22.558 16.579l.007-.004c.1-.098.22-.19.331-.286.098-.085.189-.173.258-.276l.028-.045c.003-.006.003-.011.002-.014s-.004-.008-.009-.011-.009-.003-.013-.003l-.005.002-.005.006a.994.994 0 0 1-.191.218l-.068.064c-.057.056-.118.108-.177.159l-.09.078-.086.08c-.005.005-.006.009-.006.013s.002.009.006.013.008.006.012.006h.006zM22.688 16.738l.006-.004c.076-.081.149-.166.22-.253l.07-.088c.042-.053.087-.102.131-.151a1.46 1.46 0 0 0 .093-.115l.028-.041c.004-.006.004-.01.003-.013s-.004-.007-.008-.01-.009-.004-.013-.003l-.006.002-.006.006a1.306 1.306 0 0 1-.132.17l-.071.08-.068.081c-.063.08-.128.158-.196.233l-.068.075c-.008.008-.006.019.001.027.004.004.008.006.011.006l.005-.001zM22.79 16.898l.005-.005.155-.209.155-.21c.04-.053.086-.103.126-.153a.866.866 0 0 0 .083-.118l.022-.044a.021.021 0 0 0-.009-.028.012.012 0 0 0-.011-.002l-.004.002-.004.006a.81.81 0 0 1-.116.179 2.607 2.607 0 0 1-.068.08l-.065.08-.142.194-.144.194a.024.024 0 0 0 .002.03c.004.004.007.006.01.006l.004-.001zM22.891 16.995l.006-.006c.079-.119.155-.245.234-.367l.081-.12c.033-.047.074-.096.11-.145a.774.774 0 0 0 .073-.113l.018-.039a.023.023 0 0 0-.009-.029c-.004-.003-.008-.003-.011-.003l-.003.002-.004.006a.697.697 0 0 1-.087.145l-.1.131a5.337 5.337 0 0 0-.168.255l-.165.259c-.004.006-.004.01-.003.013s.004.007.008.01a.018.018 0 0 0 .02 0zM22.223 14.92l.006-.004c.102-.103.209-.198.316-.294.08-.072.16-.143.237-.218l.076-.076a.018.018 0 0 0 0-.026c-.004-.004-.008-.006-.011-.006l-.005.001-.006.004c-.101.104-.208.2-.315.296-.08.072-.161.143-.238.217l-.077.075c-.005.005-.006.009-.006.013s.003.009.006.013c.004.004.008.006.012.006l.005-.001zM22.02 14.848l.006-.004c.088-.097.18-.189.273-.279l.28-.269c.005-.004.006-.009.006-.012s-.002-.009-.006-.013-.008-.006-.012-.006l-.006.001-.006.004c-.163.158-.33.31-.485.475l-.066.071-.004.007c-.003.007 0 .015.005.021.004.004.008.006.011.006l.005-.001zM21.894 14.762l.006-.005c.081-.096.172-.18.263-.262s.183-.164.265-.254c.008-.009.006-.02-.001-.027-.004-.004-.008-.006-.011-.006l-.005.001-.006.005c-.084.092-.177.174-.268.256a3.589 3.589 0 0 0-.199.191l-.061.069c-.008.009-.006.021.001.029.004.004.008.006.011.006l.004-.001zM21.739 14.67l.006-.005c.074-.093.16-.174.243-.255.063-.061.125-.122.181-.188l.055-.068c.007-.01.005-.022-.002-.031a.015.015 0 0 0-.01-.005l-.003.001-.005.005a2.358 2.358 0 0 1-.239.259c-.063.061-.126.121-.184.186l-.056.066c-.008.009-.006.022.002.03.004.004.008.005.01.006l.004-.001zM21.589 14.567l.006-.004c.14-.152.28-.302.407-.466l.053-.071c.004-.005.004-.009.003-.012s-.003-.007-.008-.01c-.007-.004-.015-.005-.021-.001l-.006.005a3.351 3.351 0 0 1-.219.27l-.233.255c-.008.009-.006.019.001.027.004.004.008.006.011.006l.005-.001zM21.477 14.437l.005-.005c.068-.088.142-.171.216-.254.055-.062.111-.123.163-.187l.052-.065a.024.024 0 0 0-.002-.03c-.004-.004-.007-.006-.01-.006l-.004.001-.005.005a4.746 4.746 0 0 1-.216.254c-.055.062-.111.123-.163.187l-.052.065a.024.024 0 0 0 .002.03.022.022 0 0 0 .01.006l.004-.001zM21.356 14.329l.005-.005c.034-.044.07-.086.107-.126l.114-.117c.04-.04.076-.085.117-.13a.712.712 0 0 1 .098-.092l.037-.024c.005-.003.007-.007.008-.011s0-.009-.003-.014a.02.02 0 0 0-.01-.009l-.005-.001-.007.002a.538.538 0 0 0-.112.092l-.101.112c-.067.073-.137.14-.201.212l-.062.075a.024.024 0 0 0 .002.03.022.022 0 0 0 .01.006l.004-.001zM21.255 14.148l.006-.004c.036-.037.076-.072.115-.107l.116-.103c.042-.039.079-.078.121-.118a.986.986 0 0 1 .098-.084l.036-.024c.009-.006.011-.016.005-.026-.003-.005-.006-.008-.01-.009l-.005-.001-.007.003a.913.913 0 0 0-.124.099l-.117.114a6.523 6.523 0 0 1-.127.114c-.021.019-.043.037-.063.057l-.061.059c-.008.008-.007.018 0 .026.004.004.008.006.011.006l.005-.001zM21.167 13.954l.006-.004c.04-.04.082-.076.125-.111l.132-.1c.042-.032.082-.067.124-.101l.063-.051.066-.048c.009-.006.011-.017.005-.027-.003-.005-.006-.008-.01-.009l-.005-.001-.007.003-.071.051-.068.056-.068.057-.07.055a2.913 2.913 0 0 0-.183.145l-.057.053c-.005.005-.006.009-.006.013s.003.009.006.013.008.006.012.006l.005-.001zM21.102 13.764l.266-.178.267-.175c.009-.006.011-.017.005-.027-.003-.005-.006-.008-.009-.009h-.005l-.007.003-.267.175-.265.178c-.009.006-.011.017-.005.027.003.005.006.008.01.009h.005l.007-.003zM21.092 13.59c.145-.096.291-.197.449-.273l.068-.031c.01-.004.014-.016.011-.028-.001-.006-.004-.009-.006-.01l-.003-.001-.006.001c-.14.06-.27.14-.399.224l-.129.085c-.009.006-.011.017-.005.027.003.005.006.008.009.009h.005l.007-.003zM22.391 13.651a.246.246 0 0 0 .026-.002h.001l.009-.001h.009l.028-.002a.151.151 0 0 0 .063-.024.148.148 0 0 0 .048-.058.262.262 0 0 0 .023-.102c0-.045-.012-.093-.04-.129s-.07-.061-.136-.061h-.017c-.084.005-.126.043-.148.083a.205.205 0 0 0-.024.088v.021c.001.046.015.093.041.128s.064.058.116.058zM23.497 15.516l.026-.002.01-.001h.009c.04 0 .07-.01.092-.026s.037-.036.048-.058a.262.262 0 0 0 .023-.102c0-.045-.012-.093-.04-.129s-.07-.061-.136-.061l-.017.001c-.084.005-.126.043-.148.082a.22.22 0 0 0-.024.088v.021c.001.046.015.093.041.128s.064.058.116.058zM23.55 14.319l.026-.002h.001l.01-.001h.009c.04 0 .07-.01.092-.026s.037-.036.048-.058a.262.262 0 0 0 .023-.102c0-.045-.012-.093-.04-.129s-.07-.061-.136-.061h-.017c-.084.005-.126.043-.148.083a.205.205 0 0 0-.024.088v.021c.001.046.015.093.041.128s.064.058.116.058zM2.389 14.31c.368.049.746-.035 1.037-.234.298-.204.507-.529.525-.956l.001-.087c0-.007-.003-.011-.006-.014s-.007-.004-.012-.004-.009.002-.012.004c-.001.001-.003.003-.003.005l-.001.009c.008.458-.203.804-.514 1.016-.296.201-.681.28-1.051.219.012.014.025.028.036.043zm-.104-.039.008-.014a.019.019 0 0 0-.015.028l.008-.013zm.034.008-.005.009a.031.031 0 0 0-.005.01l.031.005-.021-.024zm-.339 1.986c.324-.084.513-.41.6-.737l.016-.065c.086-.389.014-.814-.225-1.121a.489.489 0 0 1-.053-.009c.233.275.307.642.264 1.001l-.011.075a1.348 1.348 0 0 1-.191.504.726.726 0 0 1-.378.307l-.032.009c-.006.001-.008.005-.01.008s-.002.009-.001.014.004.01.008.012a.008.008 0 0 0 .005.002h.007zM3.237 14.956c.334-.07.663-.262.901-.531.235-.265.382-.604.362-.974l-.006-.074c-.001-.013-.011-.019-.021-.019-.005 0-.009.002-.01.004l-.002.004v.008c.045.396-.104.756-.35 1.031a1.677 1.677 0 0 1-.887.517l.001.002.014.033zm-.065.02.019-.05-.019.004c-.004.001-.007.003-.009.009l-.001.01.002.009a.134.134 0 0 1 .007.018zm-.55 2.11.007-.004c.264-.258.489-.614.605-.996.11-.362.123-.746-.017-1.092l-.026.005-.008.001c.144.344.128.727.016 1.085a2.408 2.408 0 0 1-.546.922l-.048.048c-.005.005-.006.009-.006.012s.002.009.006.013.008.006.012.006h.006z" style="fill:var(--color1, #e4c07a)"/><path fill="#e4c07a" d="M3.19 14.967c.003-.001.006-.003.009-.008.004-.008.005-.016.001-.023l-.006-.006c-.223-.168-.45-.332-.673-.501l-.222-.171c-.005-.004-.008-.004-.01-.003s-.006.003-.009.008c-.004.008-.005.017-.001.024l.005.006c.147.116.296.227.446.338l.449.334c.005.004.008.004.01.003zM3.249 15.222c.003-.001.006-.004.009-.009.004-.008.005-.016.001-.023l-.005-.006a6.365 6.365 0 0 0-.327-.216l-.335-.202c-.005-.003-.009-.003-.012-.002s-.007.004-.01.009-.004.01-.003.014l.002.006.006.005c.168.1.337.2.502.309l.163.111c.005.004.009.003.011.003zM3.297 15.457c.003-.001.006-.003.009-.008.004-.008.005-.017.001-.023l-.006-.006a3.067 3.067 0 0 0-.328-.213c-.084-.05-.17-.099-.253-.153l-.082-.056c-.005-.004-.009-.003-.011-.003s-.006.004-.009.009c-.004.008-.005.016-.001.023l.005.006c.107.076.219.141.333.208.085.05.169.101.251.157l.081.058c.005.004.008.004.01.003zM3.304 15.665a.026.026 0 0 0 .007-.011.026.026 0 0 0-.005-.023l-.007-.004a.98.98 0 0 1-.167-.094l-.154-.11c-.055-.038-.111-.074-.168-.111l-.085-.055-.084-.057c-.005-.004-.008-.003-.011-.003s-.007.004-.009.009c-.004.008-.004.016 0 .022l.005.006c.055.039.111.076.167.113l.17.11c.056.036.11.077.163.114.04.028.081.053.124.075l.044.02c.005.002.008.001.01 0zM3.248 15.916c.002-.001.006-.003.009-.008.004-.008.005-.017.001-.024l-.005-.006c-.1-.078-.207-.147-.314-.216-.08-.052-.161-.104-.239-.162l-.077-.059c-.005-.004-.008-.003-.009-.003s-.006.003-.008.008c-.004.008-.005.017-.001.024l.005.007c.099.081.205.15.312.219.08.052.161.104.24.16l.077.058c.005.004.008.003.01.003zM3.186 16.171c.004-.002.008-.005.01-.01l.003-.014-.002-.005-.006-.005a2.292 2.292 0 0 1-.486-.369l-.145-.144c-.004-.005-.009-.005-.012-.005s-.008.002-.012.006a.02.02 0 0 0-.005.02l.004.006c.17.173.347.342.549.468l.088.051c.005.003.01.003.013.001zM3.099 16.392a.016.016 0 0 0 .009-.009c.004-.008.004-.016 0-.022l-.005-.006a1.81 1.81 0 0 1-.244-.201l-.075-.074a2.04 2.04 0 0 1-.136-.159 1.918 1.918 0 0 0-.1-.117l-.036-.036c-.005-.004-.009-.005-.012-.005s-.009.003-.012.006-.006.008-.006.012l.001.006.005.007c.051.048.096.103.14.156l.066.08.068.077c.088.092.182.178.283.252l.044.031c.005.003.009.003.011.002zM2.998 16.58c.004 0 .008-.002.012-.006s.006-.009.006-.013l-.001-.006-.005-.007a3.28 3.28 0 0 0-.175-.158l-.09-.078-.088-.08c-.076-.072-.168-.15-.233-.242l-.026-.041c-.003-.006-.007-.008-.01-.008s-.008 0-.013.003a.031.031 0 0 0-.009.011l-.001.006.003.008c.071.122.175.224.287.321.083.072.171.142.253.213l.078.073c.005.005.009.005.012.005zM2.867 16.739a.015.015 0 0 0 .011-.006.02.02 0 0 0 .005-.02l-.004-.007a4.843 4.843 0 0 1-.135-.151l-.129-.157c-.044-.055-.092-.107-.139-.16a1.531 1.531 0 0 1-.101-.125l-.031-.045c-.004-.006-.008-.008-.011-.008s-.009 0-.013.003-.007.006-.008.01l-.001.006.003.008c.036.056.076.108.119.157l.132.149c.075.086.143.174.216.258l.074.083c.004.005.008.006.011.005zM2.764 16.899c.002 0 .006-.002.01-.006.006-.006.009-.014.006-.022l-.004-.008a8.788 8.788 0 0 1-.143-.194l-.143-.194c-.042-.055-.088-.105-.133-.16a.917.917 0 0 1-.091-.13l-.024-.049c-.003-.006-.006-.008-.008-.008s-.007 0-.011.002a.022.022 0 0 0-.011.02l.002.009a.98.98 0 0 0 .167.239l.064.076c.055.067.106.138.157.209l.076.106.077.105c.004.005.007.006.009.006zM2.654 16.989c.006.01.017.011.025.005.004-.003.007-.006.008-.01v-.006l-.003-.007c-.081-.122-.155-.246-.234-.367l-.081-.12c-.033-.047-.072-.093-.11-.144a.808.808 0 0 1-.076-.117l-.019-.041c-.003-.006-.006-.008-.007-.008s-.006 0-.01.003c-.007.004-.012.012-.011.02l.002.009a.625.625 0 0 0 .083.138l.1.132c.059.083.114.169.169.256l.165.258zM3.332 14.92c.004 0 .008-.002.012-.006s.006-.008.006-.013l-.001-.006-.005-.007a6.677 6.677 0 0 0-.315-.292 6.107 6.107 0 0 1-.238-.219l-.076-.077c-.004-.005-.009-.005-.012-.005s-.008.002-.011.006a.02.02 0 0 0-.005.02l.004.007c.1.103.206.198.313.294.08.071.161.143.239.218l.077.076c.004.005.009.005.012.005zM3.536 14.849c.003 0 .007-.002.011-.006.006-.006.008-.013.005-.021l-.004-.007a5.901 5.901 0 0 0-.271-.277l-.28-.269c-.005-.004-.009-.005-.012-.005s-.008.003-.012.006-.006.009-.006.013l.001.006.005.006c.162.157.33.311.487.476l.066.072c.004.005.008.006.011.005zM3.661 14.763c.003 0 .007-.002.011-.006.006-.006.008-.014.006-.021l-.004-.007a2.649 2.649 0 0 0-.26-.259c-.068-.062-.137-.123-.203-.189l-.064-.067c-.004-.005-.008-.006-.011-.005s-.008.002-.011.006c-.006.006-.008.013-.005.021l.004.007c.083.09.174.171.265.254.068.062.137.125.201.193l.062.07c.004.005.008.006.01.006zM3.815 14.671c.003 0 .007-.002.01-.006.006-.006.008-.014.006-.022l-.004-.008c-.073-.091-.156-.171-.24-.252a2.736 2.736 0 0 1-.183-.19l-.056-.069c-.004-.005-.007-.006-.009-.006l-.01.005c-.006.006-.008.015-.006.023l.004.008c.07.093.152.174.236.255.063.061.126.122.185.188l.058.068c.004.005.007.006.01.006zM3.966 14.568a.015.015 0 0 0 .011-.006c.006-.006.008-.013.005-.02l-.004-.007c-.136-.148-.275-.295-.399-.456l-.052-.07c-.007-.009-.018-.01-.027-.005-.004.003-.007.006-.008.01v.005l.003.007c.104.144.22.276.34.407l.12.13c.004.005.008.006.011.005zM4.077 14.438c.003 0 .006-.002.01-.006.006-.006.008-.014.006-.022l-.004-.008c-.067-.087-.141-.169-.215-.252-.055-.062-.111-.124-.164-.188l-.052-.065c-.004-.005-.007-.006-.009-.006s-.006.002-.01.006c-.006.006-.008.014-.006.022l.004.008c.067.087.141.169.215.252.055.062.111.124.164.188l.052.065c.004.005.007.006.009.006zM4.197 14.33c.002 0 .006-.002.01-.006.006-.006.008-.014.006-.022l-.004-.008a1.499 1.499 0 0 0-.116-.135l-.124-.128-.057-.062-.056-.063a.63.63 0 0 0-.09-.082l-.033-.022c-.005-.003-.01-.003-.013-.001l-.01.009a.019.019 0 0 0-.003.014l.002.006.006.005a.562.562 0 0 1 .124.104l.054.06.052.058c.061.065.126.127.186.196l.058.071c.004.005.007.006.009.006zM4.301 14.149c.004 0 .008-.003.012-.006.005-.006.008-.013.005-.02l-.004-.006c-.04-.04-.082-.077-.124-.115l-.064-.056-.063-.058c-.07-.067-.134-.136-.209-.19l-.033-.022c-.005-.003-.009-.003-.012-.002s-.007.004-.01.009a.02.02 0 0 0 0 .021l.006.005a.919.919 0 0 1 .134.108l.121.119c.037.036.076.069.115.103l.059.052.057.054c.004.005.009.005.012.005zM4.388 13.955c.004 0 .008-.003.012-.006s.006-.008.006-.013l-.001-.006-.004-.007a1.4 1.4 0 0 0-.116-.103l-.124-.094c-.048-.036-.093-.075-.139-.113-.023-.019-.045-.038-.068-.055l-.071-.051c-.005-.003-.009-.003-.011-.002s-.007.004-.01.009c-.004.008-.004.016 0 .022l.005.005c.045.03.087.064.129.098l.124.102c.065.05.132.098.196.153l.061.057c.005.005.009.005.012.005zM4.46 13.767a.016.016 0 0 0 .009-.009c.004-.008.004-.016 0-.022l-.006-.006-.265-.178-.267-.175c-.005-.003-.009-.003-.012-.002s-.007.004-.01.009a.02.02 0 0 0 0 .021l.006.005c.089.058.179.116.267.175l.266.178c.005.003.009.003.011.002zM4.469 13.592a.02.02 0 0 0 .01-.009c.004-.008.004-.016 0-.022l-.005-.005c-.151-.1-.299-.2-.459-.277l-.069-.031c-.005-.002-.008-.001-.01 0s-.005.005-.006.01c-.002.009 0 .018.005.023l.007.004c.138.059.267.139.393.222l.125.083c.005.003.009.003.011.002zM3.159 13.651a.14.14 0 0 0 .116-.058.213.213 0 0 0 .038-.094l.003-.035a.224.224 0 0 0-.024-.109.156.156 0 0 0-.118-.079l-.03-.003h-.017c-.066 0-.109.026-.136.061s-.04.084-.04.129c0 .01.001.057.023.102a.148.148 0 0 0 .048.058c.016.011.037.02.063.024l.028.002h.008l.01.001h.001l.026.002zM2.053 15.516a.137.137 0 0 0 .116-.058.213.213 0 0 0 .038-.094l.003-.035a.224.224 0 0 0-.024-.109.156.156 0 0 0-.118-.079l-.03-.003-.017-.001c-.066 0-.109.026-.136.061s-.04.084-.04.129c0 .01.001.057.023.102a.148.148 0 0 0 .048.058c.016.011.037.02.063.024l.028.002H2.016l.01.001h.001l.026.002zM2 14.319a.137.137 0 0 0 .116-.058.213.213 0 0 0 .038-.094l.003-.034a.224.224 0 0 0-.024-.109.156.156 0 0 0-.118-.079l-.03-.003h-.017c-.066 0-.109.026-.136.061s-.04.084-.04.129c0 .01.001.057.023.102a.148.148 0 0 0 .048.058c.016.011.037.02.063.024l.028.002h.008l.01.001.026.002zM13.105 25.752c.948-.047 1.855-.534 2.615-1.12l.15-.118c.187-.151.365-.316.533-.492l-.276.244c-.6.531-1.283.968-2.028 1.232l-.15.05c-1.662.531-3.337-.396-4.504-1.608l-.111-.118a4.172 4.172 0 0 1-.489-.637l-.059-.1c-.03-.054-.02-.122.008-.192s.077-.147.132-.221c.055-.073.117-.145.171-.207l.13-.144a6.48 6.48 0 0 1 1.782-1.437l.133-.072c.795-.419 1.656-.576 2.525-.382l.084.02c.762.19 1.468.619 2.083 1.123l.122.102c.186.158.433.363.647.595.201.217.374.459.441.709l.012.05c.005.022.015.035.027.042l.007-.021.011-.045c.001-.005.005-.01.01-.012s.01-.002.014-.001c.006.002.012.007.013.014v.008l-.01.043-.006.021.011-.002a.07.07 0 0 0 .053-.07l-.002-.016c-.044-.205-.165-.401-.311-.581a4.078 4.078 0 0 0-.23-.257l-.226-.226a6.626 6.626 0 0 0-1.679-1.218l-.123-.061c-.61-.295-1.298-.472-1.97-.408l-.134.016c-.744.108-1.43.435-2.057.863l-.125.087a6.22 6.22 0 0 0-1.365 1.317l-.075.103c-.044.062-.11.138-.157.22-.041.072-.063.142-.045.205l.01.026c.092.186.216.356.347.517l.133.158c.937 1.096 2.355 2.015 3.787 2.004l.139-.004z" style="fill:var(--color1, #e4c07a)"/><path fill="#e4c07a" d="m13.062 24.909.184-.008c.875-.057 1.751-.365 2.528-.797l.154-.088c.183-.107.361-.224.532-.351-.133.092-.27.177-.41.257l-.214.12c-.756.412-1.57.702-2.418.798l-.17.017c-.88.072-1.762-.158-2.569-.513l-.16-.073c-.578-.268-1.196-.624-1.643-1.115l-.087-.1c-.029-.034-.017-.08.011-.125a.818.818 0 0 1 .141-.158c.127-.115.312-.251.507-.381.292-.196.607-.383.777-.48l.116-.064c.813-.413 1.711-.667 2.616-.665l.181.004c.846.035 1.682.322 2.441.709l.151.079c.259.139.51.297.748.472l.102.076c.075.057.179.132.271.217a.777.777 0 0 1 .194.248l.014.039a.075.075 0 0 0 .021.033l.011-.021.014-.037c.004-.011.015-.015.023-.012a.021.021 0 0 1 .011.008.069.069 0 0 1 .003.008l-.001.008-.011.033-.012.028c.009.001.018 0 .026-.003a.065.065 0 0 0 .039-.029.065.065 0 0 0 .008-.038l-.003-.016c-.074-.233-.286-.437-.53-.612a4.807 4.807 0 0 0-.372-.237l-.331-.188a6.57 6.57 0 0 0-2.531-.854l-.178-.017c-.922-.076-1.847.178-2.691.564l-.168.079c-.589.284-1.26.668-1.673 1.212l-.039.053-.003.007-.001.011.001.011.003.007c.364.503.94.856 1.487 1.137l.232.116c.834.41 1.748.653 2.668.629z" style="fill:var(--color1, #e4c07a)"/><path fill="#e4c07a" d="M12.957 23.847c.479 0 .775-.318.901-.728l.023-.083a.949.949 0 0 0-.87-1.155l-.054-.001a.948.948 0 0 0-.924 1.156c.11.449.413.811.924.811z" style="fill:var(--color1, #e4c07a)"/><path fill="#e4c07a" d="M13.004 23.881c.492-.034.854-.422.927-.936l.006-.052c.059-.586-.46-1.039-.98-1.048h-.049c-.505.019-.933.462-.933 1.001l.001.053c.027.53.446.945.934.981-.002-.005-.002-.011-.002-.016 0-.007.002-.015.005-.022-.475-.032-.825-.407-.895-.897l-.006-.049c-.056-.552.412-.978.898-1.012l.047-.002c.509-.008.949.427.948.964l-.001.051a.995.995 0 0 1-.902.945.054.054 0 0 1 .003.038zm-.046.002c.006 0 .009-.002.011-.005s.004-.008.004-.014-.002-.011-.005-.014-.006-.005-.011-.005c-.005 0-.009.002-.011.005s-.005.008-.005.014.002.011.004.014.005.005.011.005h.001zM8.773 23.095l-.016.01.032.055.026-.016-.042-.049z" style="fill:var(--color1, #e4c07a)"/><path fill="#e4c07a" d="m8.773 23.095-.018-.028.025-.016.019.023-.026.021zm-.016.01-.029.016-.015-.028.027-.017.018.028zm.032.056.018.028-.029.018-.017-.029.029-.017zm.026-.017.025-.022.026.03-.034.021-.017-.028zm-.024-.021-.017.01-.035-.057a.372.372 0 0 1 .016-.01l.036.056zm-.005-.034.031.055-.058.034-.032-.056.058-.032zm-.015.043.026-.017.035.057-.026.016-.035-.057zm.019.034a1.6 1.6 0 0 1-.042-.05l.051-.042.041.048-.05.044zM8.954 23.31l-.021-.02-.021.034.018.026.024-.04zM14.804 25.191a95.484 95.484 0 0 0-.224-.567l-.027.009.227.572.025-.013zM15.205 24.957a34.627 34.627 0 0 0-.24-.471l-.015.005c-.005.001-.008.003-.011.005.081.158.162.317.242.477l.024-.015zM15.635 24.66l-.206-.376-.026.012.209.382.023-.017zM9.071 22.6l-.042-.07a.398.398 0 0 1-.019.024l.038.065.022-.019zM16.718 23.646l-.073-.1a.326.326 0 0 1-.022.017l.076.105.019-.022zM8.818 22.843l-.003-.001-.007.012.01-.011zM17.08 22.918l.013-.009a.701.701 0 0 0-.026-.058l-.023.016a.613.613 0 0 1 .036.051z" style="fill:var(--color1, #e4c07a)"/><path fill="#e4c07a" d="m17.08 22.918.019.027-.028.02-.019-.029.028-.018zm.012-.009.031-.012.01.025-.022.015-.019-.028zm-.025-.058-.019-.027.032-.023.017.035-.03.015zm-.024.016-.026.02-.022-.028.029-.02.019.028zm.018.024.013-.009.037.055-.012.009-.038-.055zm0 .031a.538.538 0 0 0-.025-.056l.06-.029.027.061-.062.025zm.025-.044-.024.016-.037-.055a.319.319 0 0 0 .023-.016l.038.055zm-.016-.031a.764.764 0 0 1 .038.053l-.056.036a.797.797 0 0 0-.035-.049l.053-.041zM16.846 22.532a.398.398 0 0 0-.019-.024l-.044.075.022.019.041-.069zM16.376 24.019l-.131-.189-.024.015c.044.065.089.13.135.194l.02-.02zM16 24.368a19.578 19.578 0 0 1-.184-.282l-.024.013c.061.096.123.192.186.287l.022-.018zM16.943 23.345l-.022-.037a.387.387 0 0 1-.021.02l.026.043.017-.026zM9.773 22.095a17.06 17.06 0 0 0-.149-.221l-.021.02.145.216.024-.015zM9.231 23.547l-.022-.018-.069.095.019.022.073-.1zM12.941 25.717h.011c.009-.27.015-.541.02-.811h-.028c-.004.271-.011.541-.02.811h.017zM9.372 22.362a6.25 6.25 0 0 0-.095-.131l-.019.022.091.126.023-.017zM10.199 21.852a20.552 20.552 0 0 0-.198-.313l-.022.018c.066.102.131.205.195.308l.025-.013zM12.512 25.69a11.1 11.1 0 0 0 .087-.795l-.028-.002c-.02.265-.046.53-.087.793a.236.236 0 0 0 .028.004zM10.576 21.667l-.22-.402-.023.017.217.397.026-.012zM11.397 21.354l-.234-.586-.025.013.232.581.027-.008zM11.035 21.477l-.253-.496a.298.298 0 0 1-.024.014l.251.491a.277.277 0 0 0 .026-.01zM9.631 23.832l-.024-.016L9.48 24l.02.021.131-.189zM11.639 24.731l-.027-.007-.223.633.026.011.224-.637zM11.291 24.629a.771.771 0 0 1-.026-.009l-.224.564a.196.196 0 0 0 .025.013l.226-.569zM11.733 25.497c.064-.233.132-.465.202-.695l-.028-.006c-.069.23-.137.46-.201.692l.027.009zM11.736 21.26l-.229-.652-.026.011.228.648a.268.268 0 0 0 .027-.007zM12.168 25.627c.057-.252.102-.506.146-.761l-.028-.004c-.044.253-.089.507-.146.757a.268.268 0 0 0 .027.007zM9.874 24.37c.062-.093.123-.188.183-.282l-.025-.013c-.059.093-.119.185-.18.277l.021.019zM14.454 25.361l-.223-.635-.027.007.224.64.026-.012zM10.444 24.288l-.026-.012-.204.371.023.017.207-.376zM10.906 24.49l-.026-.01c-.08.156-.16.311-.238.468l.013.008a.067.067 0 0 0 .011.007c.079-.158.16-.315.24-.473zM14.706 20.775l-.025-.013-.235.589.027.008.233-.584zM16.251 21.875l-.021-.02-.152.226.024.015.149-.221zM12.021 21.197c-.071-.234-.143-.469-.211-.704a.771.771 0 0 0-.026.009c.068.234.139.467.21.701l.028-.006zM15.089 20.988l-.024-.014-.255.499.026.01.253-.495zM15.516 21.27l-.023-.017-.223.406a.652.652 0 0 1 .026.012l.22-.402zM14.136 25.489a34.16 34.16 0 0 0-.201-.693l-.028.006c.07.231.138.463.202.696l.027-.009zM13.701 25.62a15.123 15.123 0 0 1-.147-.758l-.028.004c.044.255.09.509.147.761l.027-.006zM16.6 22.233l-.02-.021-.099.136.023.016.095-.131zM13.358 25.686c-.04-.263-.067-.527-.087-.793l-.028.002c.02.266.047.532.087.795a.236.236 0 0 1 .028-.004zM15.675 21.856c.065-.105.131-.209.198-.313l-.022-.018c-.068.105-.135.211-.201.317l.025.013zM12.936 20.298H12.909l.011.811h.028l-.011-.811zM13.25 21.122a15.2 15.2 0 0 1 .068-.797l-.027-.004c-.031.265-.051.532-.068.799l.028.002zM12.62 21.12a15.184 15.184 0 0 0-.068-.799.251.251 0 0 0-.027.004c.031.265.05.531.067.797l.028-.001zM12.366 21.143c-.045-.256-.087-.513-.137-.767l-.027.006c.05.254.092.51.137.765l.027-.004zM14.362 20.615l-.026-.011-.23.654a.197.197 0 0 1 .026.007l.23-.65zM13.849 21.202c.071-.234.142-.468.21-.703l-.027-.009c-.068.236-.14.471-.211.706l.028.005zM13.504 21.147c.044-.255.087-.511.137-.765l-.027-.006c-.05.255-.092.511-.137.767l.028.003zM12.934 13.913l-.002-.002c-.004-.004-.011-.006-.017-.006s-.013.002-.017.006l-.002.003h.038zm-.02.622c.015-.196.023-.393.025-.589h-.049c.001.197.009.394.023.589zm.552 5.825.01-.006c.345-.307.502-.746.546-1.214a4.09 4.09 0 0 0-.094-1.225l-.038-.161a7.315 7.315 0 0 0-.295-.871c-.085-.214-.173-.428-.255-.643l-.079-.216a5.972 5.972 0 0 1-.303-1.62 6.784 6.784 0 0 1-.025.32c.021.212.051.423.091.633l.041.201c.109.494.308.96.49 1.431l.077.202c.169.456.321 1.049.331 1.621.009.536-.105 1.057-.451 1.431l-.072.073c-.007.007-.009.013-.009.019s.003.012.008.018c.008.008.018.012.028.008zm-1.627-1.272c-.005-.087-.007-.176-.005-.265.012-.504.136-1.023.281-1.458l.063-.181c.187-.512.407-1.001.551-1.525l.028-.105c.068-.272.113-.551.141-.832a7.221 7.221 0 0 1-.023-.293 6.856 6.856 0 0 1-.218 1.357l-.034.121c-.092.317-.213.622-.332.927-.104.267-.207.534-.29.809l-.034.118c-.109.395-.17.873-.128 1.327z" style="fill:var(--color1, #e4c07a)"/><path fill="#e4c07a" d="M12.964 19.935c.284-.321.375-.8.349-1.295a3.663 3.663 0 0 0-.349-1.356 3.688 3.688 0 0 0-.349 1.356c-.027.495.065.974.349 1.295z" style="fill:var(--color1, #e4c07a)"/><path fill="#e4c07a" d="m12.984 17.246-.006-.012c-.002-.005-.008-.008-.014-.008l-.009.002-.006.006-.006.012h.04zm-.017.033h-.005l.003.006.003-.006zm-.046 2.654.007-.01.015-.018c-.283-.348-.368-.814-.338-1.285.029-.461.168-.928.342-1.298l-.019-.04c-.183.384-.328.87-.356 1.348-.028.481.063.951.35 1.303l.001-.001zm.087.002c.287-.352.378-.823.35-1.303a3.757 3.757 0 0 0-.356-1.348l-.019.04c.173.37.313.837.342 1.298.03.471-.056.937-.339 1.285l.015.018a.041.041 0 0 1 .007.011zm-.044.044c.003 0 .007-.002.01-.006.006-.006.008-.014.005-.021l-.004-.007-.011-.014-.011.014c-.008.009-.006.02.001.028a.027.027 0 0 0 .01.006zM15.892 16.914a.037.037 0 0 0-.023-.029.02.02 0 0 0-.013-.001.018.018 0 0 0-.005.004l-.006.009-.002.004.025.007.024.007zm-.044.088a.602.602 0 0 0 .03-.056l-.02-.006-.016-.005.006.067zm-1.874 1.488.001-.001c.231-.367.599-.618.966-.821l.156-.084c.263-.137.55-.284.721-.535l-.007-.087a1.166 1.166 0 0 1-.401.395c-.09.058-.185.109-.278.159l-.139.074-.132.075c-.329.197-.645.419-.851.753l-.04.068-.001.002v.001l.001.002h.002zm.567 2.196c1.138-.783 1.488-2.345 1.358-3.706a.76.76 0 0 1-.046.078c.094 1.289-.239 2.672-1.238 3.488l-.103.08c-.016.012-.018.033-.009.049.004.008.01.013.016.015l.009.001.012-.005z" style="fill:var(--color1, #e4c07a)"/><path fill="#e4c07a" d="M14.14 20.51c.416-.151.697-.495.86-.909.153-.388.2-.837.156-1.24l-.01-.08-.002-.004-.006-.002-.007.001-.004.004-.011.019c.005.002.007.005.008.007l.002.006.002.01c.005.043.008.087.01.13l.004.13c.014.835-.293 1.523-1.002 1.928v.002zm.518-1.685a2.84 2.84 0 0 0 .203-.155l.06-.053a.938.938 0 0 0 .095-.108l.026-.036a.182.182 0 0 0 .018-.046.851.851 0 0 0 .014-.054c-.133.213-.314.37-.505.517l.091-.063zM9.961 16.908l.025-.007-.002-.004c-.004-.008-.008-.011-.011-.012s-.008-.001-.013.001a.037.037 0 0 0-.021.02l-.002.01.025-.007zm.026.027-.016.005a.505.505 0 0 0-.02.006l.031.057.006-.067zm1.871 1.554.001-.002v-.001l-.001-.002c-.165-.302-.414-.508-.688-.692l-.119-.078c-.09-.057-.189-.11-.29-.163s-.204-.108-.303-.168c-.176-.109-.338-.238-.441-.422l-.007.086c.133.195.337.324.543.439l.105.057c.411.222.854.462 1.141.861l.055.082.001.001h.002zm-.548 2.201a.029.029 0 0 0 .016-.015.039.039 0 0 0 0-.039l-.009-.011c-1.079-.804-1.438-2.236-1.341-3.568a.76.76 0 0 1-.046-.078c-.126 1.318.198 2.823 1.252 3.628l.106.077a.028.028 0 0 0 .022.005z" style="fill:var(--color1, #e4c07a)"/><path fill="#e4c07a" d="M11.689 20.509c-.659-.376-.954-.977-.996-1.729l-.005-.152c-.001-.044 0-.088.002-.131l.008-.131.007-.071.008.001-.009-.016c-.002-.003-.006-.005-.011-.005l-.006.002-.002.004c-.06.423-.017.906.145 1.32s.444.757.859.908v-.001zm-.236-1.475c-.266-.202-.54-.393-.717-.696.002.062.029.105.066.152l.048.061c.145.187.363.317.572.461l.031.022zM17.84 19.549a.036.036 0 0 0-.018-.025.021.021 0 0 0-.015-.002c-.003.001-.006.003-.009.008l.023.01.02.009zm-.085.144a.6.6 0 0 0 .073-.112l-.022-.01-.02-.009a1.471 1.471 0 0 1-.032.131zm-2.538.305c.421-.178.847-.164 1.277-.123l.431.044c.177.017.362.019.523-.029a.626.626 0 0 0 .253-.14c.014-.04.026-.08.036-.122-.128.175-.324.237-.534.248-.182.01-.377-.017-.549-.04l-.163-.02c-.41-.042-.839-.083-1.215.099l-.075.039c-.009.005-.012.017-.007.031a.02.02 0 0 0 .01.012.008.008 0 0 0 .005.002l.007-.001zm.083 1.032a2.735 2.735 0 0 0 1.505-.223c.482-.225.877-.602 1.011-1.14a.662.662 0 0 1-.086.102 1.718 1.718 0 0 1-.526.727l-.058.047c-.55.428-1.204.443-1.846.487z" style="fill:var(--color1, #e4c07a)"/><path fill="#e4c07a" d="M14.957 20.646a2.057 2.057 0 0 0 1.79-.112 2.546 2.546 0 0 0 .581-.439 1.075 1.075 0 0 1-.492.123c-.124.007-.262.004-.416.001s-.328-.008-.523-.006l-.071.002c-.346.016-.562.122-.693.227a.692.692 0 0 0-.174.203l-.001.003z" style="fill:var(--color1, #e4c07a)"/><path fill="#e4c07a" d="M17.452 19.984h-.001l.001.001v-.001zm-.114.105a.831.831 0 0 0 .102-.069.488.488 0 0 0-.022-.023 1.78 1.78 0 0 1-.08.093zm-2.365.526c.093-.172.261-.271.446-.327.152-.046.317-.064.462-.07l.137-.003c.118 0 .242.007.368.013s.254.01.38.004a1.36 1.36 0 0 0 .482-.1l.073-.077c-.165.095-.35.122-.536.129l-.097.002c-.169.002-.341-.008-.511-.013a3.265 3.265 0 0 0-.443.012l-.063.008c-.135.02-.294.061-.433.133a.677.677 0 0 0-.299.278l.009.002.024.009zm.001.076c.822.294 1.787.091 2.393-.581a1.015 1.015 0 0 1-.098.051c-.601.598-1.501.77-2.279.496l-.011.024-.005.01zm-.03-.016.004-.006.01-.023-.021-.008c-.006-.002-.009-.001-.011 0s-.005.005-.007.011l-.001.007a.027.027 0 0 0 .011.018.012.012 0 0 0 .011.002l.003-.002zM8.01 19.541l.022-.01c-.003-.005-.006-.007-.009-.008a.02.02 0 0 0-.015.002.034.034 0 0 0-.018.025l.02-.009zm.064.151a1.17 1.17 0 0 1-.031-.13l-.02.009-.022.01a.656.656 0 0 0 .073.112zm2.551.305c.004-.002.007-.006.01-.012.004-.01.003-.019-.002-.025l-.005-.005c-.345-.198-.738-.189-1.125-.154l-.165.016c-.204.021-.47.073-.712.06-.21-.012-.407-.073-.534-.248.01.041.022.082.036.122.15.14.356.177.572.177l.126-.003c.153-.007.303-.022.452-.036s.298-.028.445-.032c.277-.009.553.013.833.12l.056.022c.005.002.009.002.012 0zm-1.601.81a2.741 2.741 0 0 0 1.507.223c-.632-.045-1.235-.071-1.79-.447l-.057-.04a1.664 1.664 0 0 1-.586-.775.626.626 0 0 1-.086-.103c.134.538.529.917 1.012 1.142z" style="fill:var(--color1, #e4c07a)"/><path fill="#e4c07a" d="m8.502 20.096.077.074c.116.108.286.245.504.364a2.057 2.057 0 0 0 1.79.112l-.001-.003a.714.714 0 0 0-.174-.203c-.14-.111-.376-.225-.764-.229l-.277.001a17.2 17.2 0 0 0-.247.005c-.155.003-.293.006-.416-.001-.19-.01-.35-.042-.491-.122z" style="fill:var(--color1, #e4c07a)"/><path fill="#e4c07a" d="m8.378 19.984-.001.001.001-.001zm.113.104a3.512 3.512 0 0 1-.08-.092.488.488 0 0 1-.022.023.831.831 0 0 0 .102.069zm2.389.519a.03.03 0 0 1 .009-.002.673.673 0 0 0-.299-.278 1.326 1.326 0 0 0-.329-.114l-.105-.019a2.877 2.877 0 0 0-.484-.021c-.122.003-.245.009-.367.013l-.121.002c-.231.001-.471-.013-.678-.132l.073.077c.149.065.313.092.482.1.126.006.254.002.38-.004l.187-.009.181-.005c.172-.001.397.01.6.072.185.056.354.156.446.327l.024-.009zm-2.418-.497c.606.672 1.572.875 2.394.581l-.005-.01-.011-.024c-.777.274-1.678.102-2.279-.496a.78.78 0 0 1-.099-.052zm2.437.564a.025.025 0 0 0 .011-.018v-.007a.015.015 0 0 0-.007-.011l-.004-.001-.007.001-.021.008.011.023c.003.006.006.008.007.008s.006 0 .011-.002zM16.348 31.134c.21-.402.29-.883.266-1.363a3.377 3.377 0 0 0-.387-1.417l-.046-.081c-.483-.823-1.549-1.012-2.364-.674.108-.015.22-.023.334-.022.762-.196 1.587.081 2.027.795l.049.084c.439.801.454 1.836.121 2.678zm-3.218.825c1.104-.353 2.156-1.047 2.358-2.309l.017-.124c.056-.497.03-1-.251-1.405l-.06-.08c-.254-.315-.65-.427-1.039-.43a1.9 1.9 0 0 0-.319.114c.503-.063 1.034.047 1.356.498l.033.048c.14.216.191.488.193.762.002.24-.033.485-.078.699l-.02.09c-.244 1.041-1.151 1.611-2.028 1.998l-.175.075c-.018.008-.025.027-.021.045a.028.028 0 0 0 .012.018c.002.002.005.003.009.003l.013-.002zm.623-4.232c.091-.046.183-.084.278-.114-.106.005-.21.017-.309.035l.032.079zm-.064-.069c-.011.006-.016.013-.019.021s-.001.019.003.029c.009.02.028.033.048.032l-.033-.082z" style="fill:var(--color1, #e4c07a)"/><path fill="#e4c07a" d="m16.573 27.37-.01-.006c-.013-.008-.023-.009-.032-.006s-.017.008-.023.017a.058.058 0 0 0 0 .063l.064-.067zm.14.213a2.919 2.919 0 0 0-.121-.184l-.056.059c.061.04.12.081.177.125zm1.039 2.874a.019.019 0 0 0 .007-.006l.005-.012c.278-1.137-.166-2.398-1.121-3.025.051.073.098.148.142.226.758.633 1.084 1.669.945 2.674l-.017.108c-.003.019.008.032.021.036a.024.024 0 0 0 .017-.001zm-1.439.782c.242-.166.42-.451.547-.767.119-.297.194-.62.238-.899l.017-.117a2.914 2.914 0 0 0-.356-1.794 2.517 2.517 0 0 0-.192-.143c.79 1.122.601 2.704-.255 3.721zM9.456 31.254a3.314 3.314 0 0 1-.006-2.594l.037-.084c.367-.805 1.254-1.125 2.045-.957.11-.006.222-.003.335.009-.818-.307-1.78-.077-2.289.683l-.05.079c-.25.417-.385.965-.387 1.511-.002.485.1.968.315 1.353zm2.51-3.581a2.23 2.23 0 0 0-.313-.023c.096.027.19.061.281.103l.032-.079zm.757 4.283a.031.031 0 0 0 .012-.019c.003-.013 0-.027-.009-.035l-.012-.007c-.939-.352-1.871-.855-2.239-1.885l-.034-.101c-.141-.456-.184-1.011 0-1.465l.04-.089c.138-.282.382-.447.655-.532.232-.072.487-.087.719-.067a1.877 1.877 0 0 0-.327-.102 1.503 1.503 0 0 0-.879.329l-.077.066c-.19.174-.293.421-.339.688-.041.233-.038.48-.012.702l.012.093c.196 1.339 1.189 2.046 2.353 2.396l.113.033c.011.003.018.001.023-.003zm-.747-4.189c.017.003.033-.011.039-.034s-.001-.042-.016-.05l-.033.083.011.001z" style="fill:var(--color1, #e4c07a)"/><path fill="#e4c07a" d="M9.178 27.558c.013-.018.008-.04-.008-.055a.048.048 0 0 0-.041-.015l-.013.005-.011.007.065.068.007-.01zm-.205.161c.055-.046.112-.089.171-.13l-.056-.059a3.073 3.073 0 0 0-.115.189zm-.924 2.912c.009-.003.018-.01.02-.021v-.013c-.212-1.031.071-2.133.835-2.817.041-.078.085-.155.134-.23-.902.642-1.308 1.856-1.047 2.955l.028.109c.003.01.008.015.013.017s.012.003.018.001zm1.447.727c-.894-.988-1.126-2.555-.379-3.709a2.504 2.504 0 0 0-.187.15 3.026 3.026 0 0 0-.311 1.667l.015.14c.038.297.133.671.286 1.006.143.314.335.592.576.746zM18.129 19.984l-.007-.001a.018.018 0 0 0-.01.008.036.036 0 0 0-.005.022l.022-.03zm.109.146a1.684 1.684 0 0 0-.085-.123l-.023.031c.037.029.073.059.108.091zm-1.092 2.899c.611.041 1.301-.156 1.606-.748l.029-.059c.17-.373.163-.817.036-1.225a2.09 2.09 0 0 0-.577-.924c.031.046.058.094.084.144.218.234.38.537.464.86.102.392.089.814-.079 1.174l-.036.071c-.14.261-.393.436-.675.542a2.106 2.106 0 0 1-.719.127 1.208 1.208 0 0 1-.134.038zm.363-.177c.389-.222.687-.63.844-1.093.171-.504.173-1.07-.057-1.522a1.643 1.643 0 0 0-.112-.109c.13.205.196.45.219.702.023.258.001.525-.045.767l-.021.102a1.89 1.89 0 0 1-.439.821 1.877 1.877 0 0 1-.389.332zm-.375.136c-.002.001-.004.001-.005.003l.005-.003z" style="fill:var(--color1, #e4c07a)"/><path fill="#e4c07a" d="M18.24 25.943a2.09 2.09 0 0 0 .577-.924c.119-.383.132-.797-.007-1.154l-.03-.071c-.289-.637-1.004-.849-1.635-.806.045.01.09.023.133.038.502.001 1.064.187 1.363.621l.031.047c.223.36.238.817.121 1.242-.089.324-.256.63-.468.861-.026.05-.054.099-.085.147zm-1.11-2.917.004.002-.004-.002zm1.053 2.863c.039-.035.078-.073.114-.113.228-.452.226-1.016.055-1.519-.155-.458-.449-.862-.831-1.085.36.234.64.623.78 1.035l.034.11c.072.26.101.57.07.87a1.635 1.635 0 0 1-.223.702zm-.031.12c.031-.04.06-.081.086-.125a1.577 1.577 0 0 1-.109.093l.023.032zm-.023.024-.022-.029a.036.036 0 0 0 .005.022c.003.005.007.008.01.008h.007z" style="fill:var(--color1, #e4c07a)"/><path fill="#e4c07a" d="m19.264 21.171.014-.004a.026.026 0 0 0-.019-.006l-.008.004c-.001.001-.003.004-.002.01l.015-.004zm.021.029-.012.003-.01.003.026.04-.004-.046zm-1.773 1.832c.503.022 1.088.017 1.565-.176l.094-.041c.321-.151.433-.436.422-.747a1.773 1.773 0 0 0-.273-.835.915.915 0 0 1 .003.074c.092.16.163.336.207.516l.021.097c.041.221.014.47-.12.654l-.028.036a.715.715 0 0 1-.291.19l-.105.038c-.471.161-1.007.176-1.497.155l-.007.001-.004.003a.025.025 0 0 0-.004.013c0 .009.004.016.01.019l.007.002zm.652-.186c.696-.128 1.142-.809 1.127-1.53l-.036-.06c.038.703-.367 1.379-1.035 1.54l-.068.014c-.006.001-.008.004-.009.006s-.002.008-.001.013c.002.009.008.015.015.016h.007z" style="fill:var(--color1, #e4c07a)"/><path fill="#e4c07a" d="M19.321 24.809c.144-.234.258-.535.273-.818.015-.29-.074-.558-.337-.72l-.055-.031c-.264-.135-.57-.182-.866-.212l-.126-.012a5.908 5.908 0 0 0-.498-.024l-.166.002c-.006 0-.009.003-.012.006s-.005.009-.005.014c0 .006.002.011.004.014l.004.003.007.001c.454-.013.934.014 1.376.143l.088.027c.19.062.338.164.433.305a.776.776 0 0 1 .122.459l-.004.08a1.714 1.714 0 0 1-.236.689 1.834 1.834 0 0 1-.004.074zm-.066-.023.037-.061c.022-.708-.354-1.386-1.052-1.515h-.007c-.007.002-.012.007-.015.016-.001.006-.001.011.001.014l.003.003.006.003c.713.132 1.07.831 1.027 1.54zm.034.009-.026.041.022.006.004-.047zm-.03.085a.025.025 0 0 0 .019-.005l-.029-.008c0 .005.001.008.002.009s.004.004.008.004zM19.77 23.219c.103 0 .17-.063.203-.151l.012-.039a.221.221 0 0 0-.189-.267l-.025-.001a.22.22 0 0 0-.214.269c.026.107.097.189.215.189z" style="fill:var(--color1, #e4c07a)"/><path fill="#e4c07a" d="M19.818 23.248a.263.263 0 0 0 .202-.216l.003-.026a.26.26 0 0 0-.253-.28h-.025c-.116.008-.208.109-.226.229l-.002.026a.265.265 0 0 0 .206.266l-.001-.01a.06.06 0 0 1 .007-.026c-.038-.008-.07-.025-.097-.05s-.047-.057-.062-.094l-.013-.039a.195.195 0 0 1 .046-.186.252.252 0 0 1 .144-.077l.023-.002c.071-.003.125.022.161.064s.052.097.051.153c-.001.099-.058.204-.17.23a.068.068 0 0 1 .007.027.036.036 0 0 1-.002.01zm-.045.007c.004 0 .007-.002.009-.004s.004-.007.004-.013c0-.012-.006-.019-.016-.02-.009.001-.016.009-.016.02 0 .006.002.01.004.013s.004.004.008.004h.006zM7.722 20.013a.03.03 0 0 0-.005-.022.018.018 0 0 0-.01-.008l-.007.001.021.03zm-.131.12c.036-.033.072-.065.11-.094l-.023-.032a1.32 1.32 0 0 0-.086.125zm1.092 2.896a1.273 1.273 0 0 1-.134-.038c-.502-.001-1.064-.188-1.363-.621l-.031-.047c-.223-.359-.238-.817-.121-1.242.089-.324.256-.63.468-.861.026-.05.054-.099.085-.147a2.08 2.08 0 0 0-.577.924c-.119.383-.132.797.006 1.155l.03.071c.289.637 1.004.849 1.635.806zm-.377-.186a2.038 2.038 0 0 1-.779-1.034l-.034-.11a2.417 2.417 0 0 1-.07-.87c.026-.254.097-.501.223-.702a1.745 1.745 0 0 0-.115.113c-.227.452-.225 1.015-.055 1.518.155.457.448.861.829 1.084zm.394.148-.005-.003a.022.022 0 0 1 .005.003zm-.012.017.001-.004-.002.006v-.001z" style="fill:var(--color1, #e4c07a)"/><path fill="#e4c07a" d="M7.589 25.943a1.385 1.385 0 0 1-.084-.144 2.02 2.02 0 0 1-.464-.861c-.102-.392-.089-.814.079-1.174l.036-.071c.14-.261.393-.436.675-.541.234-.087.488-.126.719-.127.044-.015.088-.028.134-.038-.611-.041-1.301.156-1.606.748l-.028.059c-.17.373-.163.817-.036 1.225.112.361.318.693.577.924zm1.107-2.915.004-.002-.004.002zm-1.05 2.861a1.578 1.578 0 0 1-.219-.702 2.831 2.831 0 0 1 .045-.767l.021-.102a1.88 1.88 0 0 1 .439-.821c.115-.128.245-.241.384-.33-.386.222-.683.629-.839 1.09-.171.504-.173 1.069.056 1.522.036.038.074.075.113.109zm.054.088a1.856 1.856 0 0 1-.108-.091c.026.042.054.083.085.123l.023-.032zm.008.056a.018.018 0 0 0 .01-.008.034.034 0 0 0 .005-.022.315.315 0 0 1-.022.029h.007z" style="fill:var(--color1, #e4c07a)"/><path fill="#e4c07a" d="m6.581 21.176-.002-.01c-.001-.002-.004-.004-.008-.004a.026.026 0 0 0-.019.006l.029.008zm-.015.03-.022-.006-.004.046.025-.04zm1.546 1.833.205-.007c.01 0 .017-.008.017-.02 0-.006-.002-.011-.004-.013s-.005-.004-.011-.004l-.187.006c-.407.007-.828-.022-1.22-.134l-.09-.027a.806.806 0 0 1-.435-.303.777.777 0 0 1-.124-.459l.004-.08a1.71 1.71 0 0 1 .238-.692l.003-.073a1.784 1.784 0 0 0-.273.835c-.01.292.088.56.365.717l.058.03c.432.204.967.235 1.454.224zm-.447-.193c.01.002.019-.005.022-.016.001-.006.001-.01-.001-.013l-.003-.004-.006-.002c-.708-.131-1.143-.828-1.103-1.555l-.036.059c-.015.698.402 1.358 1.059 1.517l.068.015z" style="fill:var(--color1, #e4c07a)"/><path fill="#e4c07a" d="m6.509 24.809-.004-.075a1.964 1.964 0 0 1-.204-.513l-.021-.097a.884.884 0 0 1 .104-.635l.025-.036a.66.66 0 0 1 .277-.198l.102-.04c.409-.151.873-.187 1.311-.184l.186.003c.006 0 .009-.002.011-.004s.004-.008.004-.014a.02.02 0 0 0-.005-.014l-.005-.004-.007-.002c-.502-.014-1.058.009-1.534.194l-.094.039c-.322.144-.432.431-.419.746.012.289.127.599.272.835zm.065-.024c-.042-.686.292-1.363.959-1.525l.068-.014c.006-.001.008-.004.009-.006s.002-.008 0-.014c-.003-.012-.012-.018-.022-.016l-.069.015c-.653.159-1.005.815-.984 1.499l.037.062zm-.007.05a.57.57 0 0 1-.026-.041l.004.047.022-.006zm.012.04c.001-.002.002-.004.002-.009l-.029.008c.005.004.012.007.019.005l.008-.004zM6.059 23.219c.118 0 .188-.082.215-.189a.22.22 0 0 0-.189-.267l-.025-.001a.22.22 0 0 0-.214.269c.026.107.097.189.215.189z" style="fill:var(--color1, #e4c07a)"/><path fill="#e4c07a" d="M6.106 23.248a.263.263 0 0 0 .202-.216l.003-.026a.26.26 0 0 0-.253-.28h-.025c-.116.008-.208.109-.226.229l-.002.026a.265.265 0 0 0 .206.266l-.001-.01a.06.06 0 0 1 .007-.026c-.038-.008-.07-.025-.097-.05s-.047-.057-.062-.094l-.013-.039a.195.195 0 0 1 .046-.186.25.25 0 0 1 .144-.077l.023-.002c.071-.003.125.022.161.064s.052.097.051.153c-.001.099-.058.204-.17.23a.068.068 0 0 1 .007.027l-.002.011zm-.044.007c.004 0 .007-.002.009-.004s.004-.007.004-.013c0-.012-.006-.019-.016-.02-.009.001-.016.009-.016.02 0 .006.002.01.004.013s.004.004.008.004h.006zM12.98 28.543c-.002-.007-.008-.011-.016-.011s-.014.004-.016.011h.032zm-.004.033h-.024l.012.055.012-.055zm-.892 1.108c.438-.127.737-.519.862-.983l-.017-.072c-.116.494-.432.931-.92 1.036.026.005.051.012.075.018zm1.759 0a1.02 1.02 0 0 1 .075-.018c-.488-.105-.804-.543-.92-1.036l-.017.072c.125.464.424.856.862.983zm-1.937.036c.038-.005.075-.011.111-.019a1.284 1.284 0 0 0-.111-.019c-.009.002-.015.009-.016.019.001.01.007.017.016.019zm2.099-.035a.755.755 0 0 0-.095.017c.031.007.063.012.095.017v-.033zm-1.076 1.089.017-.072c-.125-.464-.424-.856-.862-.983a1.02 1.02 0 0 1-.075.018c.488.105.804.543.92 1.037zm.069 0c.116-.494.432-.932.92-1.037a.91.91 0 0 1-.075-.018c-.438.127-.737.519-.862.983l.017.072zm-.022.052-.012-.055-.012.055h.024zm-.012.044c.008 0 .014-.004.016-.011h-.032c.002.007.008.011.016.011zM12.979 27.723c-.002-.007-.007-.011-.016-.011s-.014.004-.016.011h.032zm-.003.033h-.024l.012.063.012-.063zm-1.611 1.928c.822-.188 1.381-.935 1.581-1.788l-.017-.079c-.189.889-.772 1.695-1.658 1.849.032.006.063.011.094.018zm3.197 0c.031-.007.062-.013.094-.018-.886-.153-1.469-.959-1.658-1.848l-.017.078c.201.853.759 1.599 1.581 1.788zm-3.409.036c.043-.005.086-.011.128-.018a1.793 1.793 0 0 0-.128-.019c-.009.002-.015.009-.016.019.001.01.007.017.016.019zm3.606-.036c-.038.005-.075.01-.112.017l.112.017v-.034zm-1.83 1.901.017-.079c-.201-.853-.759-1.6-1.582-1.788a1.419 1.419 0 0 1-.094.018c.886.153 1.469.959 1.658 1.849zm.069 0c.189-.89.772-1.695 1.658-1.849-.032-.005-.063-.012-.094-.018-.822.189-1.381.935-1.581 1.788l.017.079zm-.022.06-.012-.062-.012.062h.024zm-.012.045a.017.017 0 0 0 .016-.011h-.032c.002.007.007.011.016.011z" style="fill:var(--color1, #e4c07a)"/><path fill="#e4c07a" d="m13.63 29.151-.015-.016-.249.219.018.019.246-.222zM12.682 30.198l-.015-.021-.182.299.013.018.184-.296zM12.731 30.271l-.018-.028-.15.343.018.027.15-.343zM12.967 31.567l-.004-.455-.001-.256h-.014a1.19 1.19 0 0 0-.018-.086v.665l.034.149.003-.017zM12.785 30.368l-.016-.029-.111.405.014.026.113-.402zM12.637 30.136l-.017-.022-.215.258.017.02.215-.256zM12.854 30.52l-.023-.056-.068.489.024.058.067-.491zM12.406 29.912l-.03-.022-.376.107.031.022.375-.107zM12.591 30.08l-.017-.018-.245.223a.2.2 0 0 1 .014.016l.248-.221zM12.482 29.973l-.022-.02-.323.149.022.018.323-.148zM12.402 30.117l.138-.09a.387.387 0 0 0-.021-.02l-.281.186.019.019.144-.095zM14.361 29.774l-.527-.02a.815.815 0 0 0-.083.029l.533.019.077-.029zM13.742 30.143l-.306-.163-.024.022.305.164a.48.48 0 0 1 .024-.022zM13.646 30.235a26.549 26.549 0 0 0-.268-.199l-.019.02.27.196.016-.017zM13.561 30.327l-.234-.235-.017.02.236.232.014-.017zM12.292 29.838a.402.402 0 0 0-.046-.024l-.454.057.047.024.453-.057zM14.031 29.929l-.417-.079-.04.024.417.08a.56.56 0 0 1 .041-.025zM13.404 30.529l-.17-.314-.016.024.173.311.014-.02zM13.218 30.842l-.095-.434-.016.034.098.427.013-.027zM13.483 30.422l-.202-.272-.016.021.205.269.014-.018zM13.318 30.662l-.136-.366-.016.027.138.36.013-.022zM13.117 31.066a867.01 867.01 0 0 1-.054-.517 1.165 1.165 0 0 0-.022.063l.054.514.022-.06zM13.861 30.045l-.352-.125-.026.02.356.121.021-.016zM13.455 28.945l-.014-.019-.185.295.016.022.182-.298zM13.37 28.824l-.019-.029-.151.341.018.028.152-.341zM13.27 28.659l-.02-.037-.114.4.019.036.114-.399zM12.947 28.548h.011l.003-.652v-.062a5.359 5.359 0 0 1-.028.122l-.002.672a1.88 1.88 0 0 0 .017-.08zM13.541 29.053l-.014-.017-.217.255.017.02.214-.258zM13.146 28.408l-.021-.052-.068.482c.007.018.013.037.021.055l.069-.486zM14.011 29.462l-.037-.023-.376.105.037.023.375-.104zM11.975 29.727a.81.81 0 0 0-.071-.009v-.02l-.521-.016a1.704 1.704 0 0 1-.103.02l.056.009.305.007.333.009zM13.843 29.345l-.019-.015-.324.146.024.018.32-.149zM13.727 29.247l-.017-.016-.284.183.021.018.28-.186zM14.278 29.598l-.058-.025-.451.053c.023.009.047.016.071.023l.437-.052zM12.451 29.456l-.306-.162a.243.243 0 0 1-.025.02l.305.162.026-.02zM12.875 28.826l-.056-.512-.021.055v.002l.057.51.021-.055zM12.189 29.615l.054-.024-.413-.078-.051.026.41.076zM12.573 29.341l-.236-.233-.017.019.118.117.117.116.019-.02zM12.362 29.523l-.354-.122-.024.017.351.122.027-.017zM12.514 29.402l-.271-.196a.234.234 0 0 1-.016.015l.132.097.136.101.019-.017zM12.804 28.997l-.098-.429-.015.03.097.43.016-.032zM12.627 29.279l-.204-.27-.016.02.204.271.017-.021zM12.738 29.119l-.137-.363a.365.365 0 0 1-.016.026l.137.363.017-.027zM12.681 29.207l-.172-.311-.016.022.171.313.017-.024zM20.095 25.45a.528.528 0 0 1 .213-.038.333.333 0 0 0-.223.043l.01-.004zm-.042.848c-.116-.125-.208-.272-.209-.46a.625.625 0 0 0-.004.062l.001.031a.38.38 0 0 0 .05.15.95.95 0 0 0 .042.071l.043.066c.012.018.033.038.056.06l.02.02zm-.814 2.347c-.176-.256-.22-.593-.049-.865l.039-.056a.404.404 0 0 1 .265-.137c.051-.009.103-.012.154-.015l.14-.003c.011 0 .019-.011.018-.023l-.005-.011a1.237 1.237 0 0 1-.26-.425.507.507 0 0 1 .067-.461l.023-.03a.437.437 0 0 1 .267-.143c.051-.011.104-.017.155-.02l.142-.007.003-.001.003-.004.001-.003-.001-.002c-.024-.022-.049-.044-.073-.068l-.014-.014.01.015c.005.01.008.023.003.035s-.017.02-.03.024l-.023.005-.03.003a.816.816 0 0 0-.267.055.407.407 0 0 0-.19.14l-.017.029a.648.648 0 0 0-.033.541l.016.034c.006.012.039.079.075.143a1.123 1.123 0 0 0 .074.112l.007.006h-.001v.034a.953.953 0 0 0-.332.051l-.046.018c-.211.088-.29.293-.288.517.002.188.063.386.149.532h.052zm-.012.034h-.02l.013.019.007-.019zm.024.05c.011 0 .018-.006.02-.015a.037.037 0 0 0-.001-.023l-.004-.008a.018.018 0 0 0-.004-.005l-.02.049h.008zm-.72.875a.025.025 0 0 0 .035.007.023.023 0 0 0 .011-.013v-.008l-.004-.01c-.117-.175-.119-.416-.044-.609l.016-.038c.058-.129.188-.177.324-.196.068-.009.139-.011.205-.011l.127.001a.598.598 0 0 1-.033-.049c-.111 0-.221 0-.324.019a.512.512 0 0 0-.299.157l-.035.043a.558.558 0 0 0-.085.354.736.736 0 0 0 .085.317l.022.035zM5.752 25.915a.398.398 0 0 0-.174-.367c-.006-.005-.012-.008-.019-.012a.52.52 0 0 1 .148.181l.02.046a.36.36 0 0 1 .024.153zm.646 2.767a.99.99 0 0 0 .146-.518.606.606 0 0 0-.245-.503l-.035-.023a.452.452 0 0 0-.166-.055l-.057-.007a.723.723 0 0 0-.09-.002h-.03c-.008-.001-.017-.001-.024-.005-.004-.002-.008-.005-.011-.01s-.004-.01-.004-.015c0-.009.004-.018.008-.026l.019-.033.031-.048c.06-.092.117-.206.145-.325a.503.503 0 0 0-.011-.305l-.018-.041a.479.479 0 0 0-.178-.197.652.652 0 0 0-.181-.072l-.07-.015c-.031-.006-.06-.007-.084-.008l-.033-.001a.159.159 0 0 1-.026-.004c-.008-.003-.018-.009-.02-.022-.002-.01.003-.02.008-.029s.013-.02.024-.032l.042-.046a.756.756 0 0 0 .113-.153 1.386 1.386 0 0 1-.196.224l-.068.062-.001.002.001.004a.014.014 0 0 0 .003.004l.003.001c.186.008.37.023.529.143l.032.026c.156.135.155.318.096.488-.044.127-.122.25-.195.345l-.07.085c-.009.011-.006.024.003.03l.01.003c.183.005.368.005.525.127l.031.026c.136.123.171.308.15.487a1.02 1.02 0 0 1-.158.436H6.4zm-.022.033h-.021l.008.02.014-.02zm.668.934.008-.008c.13-.185.125-.449.043-.659l-.017-.041c-.06-.131-.186-.187-.33-.21a1.977 1.977 0 0 0-.331-.016c-.011.018-.024.035-.036.052.121.002.243.001.365.021l.06.011c.175.038.266.186.293.349a.705.705 0 0 1-.061.421l-.028.048c-.005.008-.005.014-.004.018s.005.01.011.013a.028.028 0 0 0 .028.001zm-.725-.933-.003.005a.033.033 0 0 0-.005.03.025.025 0 0 0 .013.014l.007.001h.008l-.02-.05zM4.276 16.303a.332.332 0 0 0 .164-.054.352.352 0 0 1-.142.045.393.393 0 0 1-.264-.076l-.035-.027c-.181-.153-.18-.395-.053-.574l.027-.035a.347.347 0 0 1 .277-.131.396.396 0 0 1 .248.101l.03.029a.408.408 0 0 1 .109.234l.003.038a.243.243 0 0 1-.046.147l-.035.052h.006a.07.07 0 0 1 .056.026c.01.013.016.029.017.044a.29.29 0 0 0 .045-.099.601.601 0 0 0 .021-.149l-.001-.045a.474.474 0 0 0-.123-.278l-.03-.032a.395.395 0 0 0-.324-.12.442.442 0 0 0-.271.138l-.032.036-.031.042c-.139.213-.06.446.095.579a.414.414 0 0 0 .288.107zm.267-.191c.003-.005.008-.007.013-.009l-.008-.031-.001-.002-.011.018-.014.032c-.002.006-.003.012-.002.018l.021-.026zm.059.037a.057.057 0 0 0 .003-.018.05.05 0 0 0-.011-.032l-.007-.005.008.029.007.026zm-.036.028.009-.001-.002-.008-.007.009z" style="fill:var(--color1, #e4c07a)"/><path fill="#e4c07a" d="M4.245 16.13a.182.182 0 0 0 .143-.051l.019-.019.022-.03.008-.011.001-.001.006-.007c.073-.084.071-.164.049-.226a.333.333 0 0 0-.042-.078l-.032-.038a.253.253 0 0 0-.156-.075.21.21 0 0 0-.16.064l-.023.024-.015.018c-.072.093-.075.172-.058.233a.295.295 0 0 0 .08.125c.044.04.101.069.157.073zM5.176 17.218a.376.376 0 0 0 .183-.059.408.408 0 0 1-.175.052.46.46 0 0 1-.308-.103l-.04-.034c-.213-.2-.17-.497.006-.692l.037-.038a.364.364 0 0 1 .351-.088.508.508 0 0 1 .268.184l.028.04a.422.422 0 0 1 .06.292l-.01.043c-.006.022-.02.043-.034.064a.619.619 0 0 1-.046.061c-.024.034-.038.063-.035.09l.02-.024a.026.026 0 0 1 .039-.004.032.032 0 0 1 .01.016l.007-.029.003-.013h.013c.003 0 .007.001.011.004a.02.02 0 0 1 .004.006c.005.01.007.02.008.029a.358.358 0 0 0 .056-.118.633.633 0 0 0 .024-.165l-.001-.051a.527.527 0 0 0-.138-.313l-.034-.036a.442.442 0 0 0-.366-.136.506.506 0 0 0-.307.156l-.036.041c-.203.253-.115.543.072.704a.472.472 0 0 0 .327.122zm.329-.148a.047.047 0 0 0 .015-.006l.005-.02-.02.027z" style="fill:var(--color1, #e4c07a)"/><path fill="#e4c07a" d="M5.14 17.048a.228.228 0 0 0 .178-.064l.023-.024.027-.035.008-.011.001-.001.006-.007a.272.272 0 0 0 .07-.245.36.36 0 0 0-.07-.144l-.031-.034c-.052-.05-.12-.088-.193-.093s-.151.023-.225.108l-.018.022a.327.327 0 0 0-.077.251c.01.066.043.124.086.169l.019.019a.334.334 0 0 0 .194.089zM6.277 18.339a.464.464 0 0 0 .244-.085.486.486 0 0 1-.234.078.548.548 0 0 1-.371-.124l-.048-.041c-.258-.241-.208-.601.005-.838l.045-.046a.443.443 0 0 1 .426-.108.615.615 0 0 1 .327.223l.034.049a.516.516 0 0 1 .073.355l-.011.052a.26.26 0 0 1-.039.073l-.027.037-.027.037a.31.31 0 0 0-.039.071c-.005.014-.006.027-.005.039l.02-.024a.026.026 0 0 1 .039-.004.032.032 0 0 1 .01.016l.007-.029.003-.013h.013c.003 0 .007.001.011.004a.02.02 0 0 1 .004.006.094.094 0 0 1 .008.032c.094-.099.121-.24.103-.384a.809.809 0 0 0-.168-.398l-.037-.041a.531.531 0 0 0-.437-.163.596.596 0 0 0-.366.187l-.043.049c-.244.303-.138.65.086.843a.577.577 0 0 0 .393.147zm.41-.193.005-.021-.021.027a.047.047 0 0 0 .015-.006z" style="fill:var(--color1, #e4c07a)"/><path fill="#e4c07a" d="M6.237 18.168a.316.316 0 0 0 .234-.086l.029-.03.035-.046v-.001l.01-.013.006-.007a.373.373 0 0 0 .098-.3.446.446 0 0 0-.111-.231l-.026-.027c-.073-.07-.166-.117-.262-.12s-.197.036-.289.141l-.023.028a.426.426 0 0 0-.101.33.42.42 0 0 0 .114.223l.025.025c.073.067.166.11.26.115zM21.274 16.303a.417.417 0 0 0 .288-.107c.155-.133.233-.366.095-.579l-.031-.042a.435.435 0 0 0-.302-.174.42.42 0 0 0-.287.089l-.039.031a.483.483 0 0 0-.145.266l-.007.044a.485.485 0 0 0 .019.192.361.361 0 0 0 .046.099c.002-.016.007-.031.018-.044s.023-.02.039-.024l.017-.002h.007L20.959 16a.295.295 0 0 1-.044-.102l-.005-.043a.395.395 0 0 1 .089-.244l.023-.028a.354.354 0 0 1 .278-.13.383.383 0 0 1 .247.1l.03.029c.096.101.129.215.118.322s-.066.204-.143.275a.408.408 0 0 1-.28.114.328.328 0 0 1-.161-.044.33.33 0 0 0 .164.054zm-.245-.173-.002-.01a.269.269 0 0 0-.025-.051l-.001.004-.008.031.004.001.01.008.021.026v-.008zm-.067-.037-.007.005a.05.05 0 0 0-.011.032c0 .006.001.013.003.018l.014-.056zm.015.075-.002.008.009.001-.007-.009z" style="fill:var(--color1, #e4c07a)"/><path fill="#e4c07a" d="M21.305 16.13a.27.27 0 0 0 .157-.073.282.282 0 0 0 .08-.125.232.232 0 0 0-.034-.198l-.024-.034-.015-.018c-.06-.07-.124-.092-.182-.088a.245.245 0 0 0-.123.047l-.034.028a.336.336 0 0 0-.075.116.206.206 0 0 0 .025.194l.024.031.006.007.001.001.008.011v.001l.022.029a.188.188 0 0 0 .162.07zM20.375 17.218a.476.476 0 0 0 .327-.122c.176-.151.264-.415.107-.657l-.035-.048a.491.491 0 0 0-.342-.196.477.477 0 0 0-.324.1l-.043.035a.54.54 0 0 0-.163.3l-.008.05a.546.546 0 0 0 .022.215.374.374 0 0 0 .064.126l.022-.006.026.048.016.004-.021-.028c-.011-.015-.002-.032.006-.039a.03.03 0 0 1 .019-.007.02.02 0 0 1 .011.003l.009.008.02.025.001-.006a.099.099 0 0 0-.009-.037.15.15 0 0 0-.009-.018l-.01-.012a.322.322 0 0 1-.081-.123l-.016-.047c-.029-.1.006-.209.053-.295l.02-.035a.42.42 0 0 1 .619-.12l.039.032c.121.113.167.245.16.37s-.067.242-.153.328-.202.143-.321.144a.37.37 0 0 1-.178-.043.376.376 0 0 0 .171.051z" style="fill:var(--color1, #e4c07a)"/><path fill="#e4c07a" d="M20.41 17.048a.324.324 0 0 0 .173-.072l.021-.018a.33.33 0 0 0 .106-.188.313.313 0 0 0-.053-.218l-.024-.034-.018-.022c-.074-.086-.153-.113-.225-.108a.304.304 0 0 0-.173.075l-.02.018c-.041.039-.085.103-.101.178s-.004.16.07.245l.006.007-.012.011.013-.011.001.001.008.011a.533.533 0 0 0 .027.035c.06.069.132.093.201.088zM19.274 18.339c.14.007.281-.05.393-.147.211-.181.317-.498.128-.786l-.042-.057a.592.592 0 0 0-.408-.234.563.563 0 0 0-.387.12l-.052.042a.71.71 0 0 0-.205.437.486.486 0 0 0 .103.383.065.065 0 0 1 .011-.032l.011-.014a.017.017 0 0 1 .012-.005h.015l.002.015.003.028.004-.005a.029.029 0 0 1 .018-.007l.011.002.01.008a.243.243 0 0 0 .02.025v-.015l-.005-.016c-.014-.031-.031-.058-.047-.084l-.048-.078a.397.397 0 0 1-.054-.163l-.002-.029a.55.55 0 0 1 .125-.341l.032-.039a.495.495 0 0 1 .387-.18.536.536 0 0 1 .344.14l.042.041c.133.141.177.298.162.445s-.091.282-.198.38a.565.565 0 0 1-.385.158.452.452 0 0 1-.224-.063.462.462 0 0 0 .223.072zm-.411-.207.002.016a.033.033 0 0 0 .014.004l-.016-.02z" style="fill:var(--color1, #e4c07a)"/><path fill="#e4c07a" d="M19.313 18.168a.415.415 0 0 0 .231-.091l.028-.024a.428.428 0 0 0 .139-.248.408.408 0 0 0-.07-.286l-.031-.044-.023-.028a.363.363 0 0 0-.289-.141.396.396 0 0 0-.234.095l-.028.025a.445.445 0 0 0-.137.258.363.363 0 0 0 .068.263l.029.037.006.007.001.001.009.012v.001l.017.024.018.022c.076.088.17.121.263.116zM.562 14.933a.034.034 0 0 0 .026-.001l.01-.006c.082-.057.154-.152.209-.266s.094-.247.108-.38c.029-.266-.038-.524-.243-.632l.001.001c.159.127.204.375.173.612-.015.119-.05.236-.101.337a.607.607 0 0 1-.167.214l-.029.02c-.027.017-.029.049-.015.075a.048.048 0 0 0 .028.025zM13.949 24.791c.711-.218 1.088-.854 1.154-1.551.064-.675-.164-1.403-.659-1.854l-.049-.043c-.007-.006-.015-.005-.021.001-.003.003-.004.006-.004.009s0 .007.005.011c.905.955.659 2.568-.337 3.327l-.099.071c-.006.004-.008.012-.005.02.001.004.004.006.006.008h.009zM12.018 24.785a.022.022 0 0 0-.002-.018l-.004-.004c-.51-.385-.914-.928-1.019-1.59l-.009-.064c-.077-.603.135-1.212.515-1.657l.078-.087c.004-.004.005-.008.005-.011s-.002-.006-.004-.009c-.004-.004-.01-.006-.015-.004l-.005.003a2.16 2.16 0 0 0-.736 1.883c.073.656.446 1.261 1.117 1.539l.066.026c.004.002.007.001.008 0s.004-.003.005-.007zM19.516 15.203c.045-.137.098-.273.157-.406a370.538 370.538 0 0 0-.019-3.334l-.014-1.288c-.01-.859-.015-1.717-.028-2.575l-.016-.858c-.018-.797-.052-1.591-.196-2.373l-.031-.156c-.083-.404-.224-.851-.455-1.211-.216-.338-.509-.598-.904-.678l-.08-.014c-.571-.078-1.153.115-1.631.472a2.756 2.756 0 0 0-.974 1.341l-.031.107c.29-.949 1.153-1.664 2.077-1.829l.09-.014c.682-.095 1.191.282 1.498.873l.059.121c.35.772.424 1.684.455 2.544l.011.365c.065 2.287.047 4.578.037 6.866l-.005 2.052zm.19.034c.356-1.057 1.165-2.033 2.216-2.309l.106-.025c.872-.186 1.958.099 2.667.675l.067.057c.246.214.508.53.61.867l.018.068c.004.016.012.025.021.029s.021.005.032.002a.047.047 0 0 0 .035-.048l-.002-.011c-.162-.691-.701-1.192-1.349-1.499-.608-.288-1.308-.404-1.878-.345l-.112.014c-1.092.162-1.97 1.048-2.433 2.09v.434zm-.034-.357a4.392 4.392 0 0 0-.148.406l.149.021v-.428zm-.09.527a.08.08 0 0 0 .082-.043l.006-.016.002-.007-.157-.022v.008c0 .049.032.076.067.08z" style="fill:var(--color1, #e4c07a)"/><path fill="#e4c07a" d="M15.291 4.311a.087.087 0 0 0 .082-.066l.004-.02c.103-.852-.045-1.879-.454-2.705-.396-.8-1.036-1.41-1.928-1.493l-.087-.006c-.778-.042-1.503.345-1.965.991l-.044.063c-.511.762-.783 1.939-.729 2.873.043-.212.078-.423.113-.633.036-.216.071-.431.113-.644.079-.399.184-.792.365-1.177l.037-.077c.396-.793 1.124-1.27 1.967-1.283h.082c.691.014 1.276.431 1.666 1.003l.075.116c.488.796.542 1.687.598 2.587l.025.386c.002.031.014.052.028.066s.033.02.053.02z" style="fill:var(--color1, #e4c07a)"/><path fill="#e4c07a" d="M14.92 16.557c.122-2.025.227-4.05.315-6.077l.037-.874c.076-1.848.181-3.722.088-5.572l-.021-.37c-.002-.034-.025-.05-.048-.05a.046.046 0 0 0-.045.038l-.002.012c-.091 1.452-.112 2.911-.132 4.368l-.022 1.456a724.642 724.642 0 0 1-.17 7.068zM5.979 15.203c-.004-1.676-.012-3.353-.012-5.03l.002-.859c.003-.572.008-1.145.017-1.717l.015-.858c.017-.834.049-1.669.215-2.488l.035-.164c.164-.725.507-1.492 1.25-1.682l.073-.017c.549-.109 1.126.09 1.605.444.449.333.813.804.989 1.295l.033.098c-.168-.623-.642-1.231-1.227-1.599-.566-.356-1.232-.484-1.822-.184l-.057.03c-.475.266-.74.78-.898 1.356a7.937 7.937 0 0 0-.216 1.312l-.036.397a21.38 21.38 0 0 0-.062 1.774l-.005.592c-.009.618-.015 1.236-.021 1.854l-.017 1.854a375.26 375.26 0 0 0-.018 3.184c.059.134.112.269.157.407zm-.19-.4c-.447-1.004-1.278-1.864-2.315-2.069l-.118-.02c-.587-.087-1.342.024-1.99.331-.628.297-1.153.777-1.333 1.434l-.016.064a.048.048 0 0 0 .034.059.05.05 0 0 0 .032-.002.032.032 0 0 0 .017-.019l.004-.011c.071-.305.281-.585.493-.804l.091-.09c.68-.65 1.791-.92 2.692-.787l.086.014c1.099.198 1.96 1.26 2.322 2.334v-.434zm.182.483a4.036 4.036 0 0 0-.149-.406v.428l.149-.021zm-.058.121a.073.073 0 0 0 .065-.063l.001-.017v-.008l-.157.022.002.007a.08.08 0 0 0 .088.059z" style="fill:var(--color1, #e4c07a)"/><path fill="#e4c07a" d="M6.721 29.32c1.648 2.206 4.326 2.819 6.878 2.632l.247-.021c1.245-.117 2.474-.489 3.519-1.22l.101-.072c.828-.604 1.475-1.434 1.96-2.358l.095-.186c.763-1.542 1.087-3.268 1.369-4.975l.119-.73c.219-1.338.555-2.635 1.137-3.848l.12-.241c.736-1.441 1.799-2.631 3.071-3.556l.124-.089c.028-.02.03-.053.016-.079a.054.054 0 0 0-.028-.026.039.039 0 0 0-.028.001l-.011.006a9.377 9.377 0 0 0-3.265 3.593l-.074.144c-.641 1.279-.969 2.661-1.2 4.075l-.045.283c-.334 2.157-.698 4.417-1.894 6.257l-.118.177c-1.675 2.428-4.666 3.031-7.351 2.709l-.259-.034c-1.271-.182-2.5-.665-3.497-1.526l-.096-.084c-.808-.729-1.39-1.687-1.811-2.707l-.082-.204c-.66-1.696-.867-3.509-1.185-5.292l-.065-.356c-.529-2.799-1.938-5.264-4.2-6.845a9.832 9.832 0 0 1 3.157 3.824l.073.158c.545 1.208.819 2.48 1.038 3.779l.091.558c.335 2.104.748 4.34 1.975 6.086l.121.167z" style="fill:var(--color1, #e4c07a)"/><path fill="#e4c07a" d="M10.574 16.557a820.807 820.807 0 0 1-.131-5.202l-.036-1.748c-.036-1.856-.034-3.719-.136-5.572l-.022-.37c-.002-.034-.025-.05-.047-.05-.019 0-.039.012-.046.038l-.002.012c-.095 1.448-.056 2.913.002 4.37l.061 1.454c.096 2.358.215 4.714.357 7.069z" style="fill:var(--color1, #e4c07a)"/></symbol><symbol id="icon-figure-road" viewBox="0 0 29 32"><path d="M2.355.696a.348.348 0 1 1-.696 0 .348.348 0 0 1 .696 0zM28.457 4.174a.348.348 0 1 1-.696 0 .348.348 0 0 1 .696 0zM2.239 15.536a.348.348 0 1 1-.696 0 .348.348 0 0 1 .696 0zM28.442 22.957a.348.348 0 1 1-.696 0 .348.348 0 0 1 .696 0zM14.529 26.319a.348.348 0 1 1-.696 0 .348.348 0 0 1 .696 0zM2.268 31.652a.348.348 0 1 1-.696 0 .348.348 0 0 1 .696 0z"/></symbol></defs></svg>