<svg xmlns="http://www.w3.org/2000/svg" aria-hidden="true" style="position:absolute;width:0;height:0;overflow:hidden"><defs>
<symbol id="icon-arrow-button-left" viewBox="0 0 32 32"><path d="m9.367 16 6.467-5.981c.053-.048.095-.105.124-.168s.043-.13.042-.198-.016-.135-.046-.198-.073-.119-.127-.166a.59.59 0 0 0-.409-.146.623.623 0 0 0-.219.043.575.575 0 0 0-.184.116l-6.854 6.339c-.104.096-.162.225-.162.358s.058.262.162.358l6.854 6.339c.052.049.114.089.184.116a.632.632 0 0 0 .44.007.571.571 0 0 0 .188-.11c.054-.047.097-.104.127-.166a.47.47 0 0 0-.12-.564l-6.467-5.981z"/><path d="m17.367 16 6.467-5.981c.053-.048.095-.105.124-.168s.043-.13.042-.198-.016-.135-.046-.198-.073-.119-.127-.166a.59.59 0 0 0-.409-.146.623.623 0 0 0-.219.043.575.575 0 0 0-.184.116l-6.854 6.339c-.104.096-.162.225-.162.358s.058.262.162.358l6.854 6.339c.052.049.114.089.184.116a.632.632 0 0 0 .44.007.571.571 0 0 0 .188-.11c.054-.047.097-.104.127-.166a.47.47 0 0 0-.12-.564l-6.467-5.981z"/></symbol>
<symbol id="icon-arrow-button-right" viewBox="0 0 32 32"><path d="m22.633 16-6.467-5.981c-.053-.048-.095-.105-.124-.168s-.043-.13-.042-.198.016-.135.046-.198.073-.119.127-.166a.59.59 0 0 1 .409-.146c.076.001.15.016.219.043a.575.575 0 0 1 .184.116l6.854 6.339c.104.096.162.225.162.358s-.058.262-.162.358l-6.854 6.339c-.052.049-.114.089-.184.116a.632.632 0 0 1-.44.007.571.571 0 0 1-.188-.11c-.054-.047-.097-.104-.127-.166a.47.47 0 0 1 .12-.564l6.467-5.981z"/><path d="m14.633 16-6.467-5.981c-.053-.048-.095-.105-.124-.168s-.043-.13-.042-.198.016-.135.046-.198.073-.119.127-.166a.59.59 0 0 1 .409-.146c.076.001.15.016.219.043a.575.575 0 0 1 .184.116l6.854 6.339c.104.096.162.225.162.358s-.058.262-.162.358l-6.854 6.339c-.052.049-.114.089-.184.116a.632.632 0 0 1-.44.007.571.571 0 0 1-.188-.11c-.054-.047-.097-.104-.127-.166a.47.47 0 0 1 .12-.564l6.467-5.981z"/></symbol>
<symbol id="icon-gift" viewBox="0 0 32 32"><path d="M32 10.016a2 2 0 0 0-2-2h-3.414c.883-.872 1.449-2.014 1.449-3.421 0-1.732-.995-3.615-3.788-3.615-3.675 0-6.745 3.913-8.187 6.106C14.617 4.893 11.453.98 7.778.98 4.985.98 3.99 2.862 3.99 4.594c0 1.407.581 2.55 1.482 3.421H2a2 2 0 0 0-2 2v5.986h2.018v13.018a2 2 0 0 0 2 2h23.99a2 2 0 0 0 2-2V16.001h1.993v-5.987zm-7.753-7.035c1.237 0 1.788.52 1.788 1.615 0 2.221-2.479 3.42-4.811 3.42h-3.385c1.421-2.111 3.922-5.035 6.409-5.035zm-16.47 0c2.487 0 5.083 2.924 6.504 5.034h-3.387c-2.332 0-4.905-1.229-4.905-3.451 0-1.095.551-1.583 1.788-1.583zM30 14.003H17v-3.987h13v3.987zM2 10.016h13v3.987H2v-3.987zm2.017 5.987H15V29.02H4.017V16.003zM28.008 29.02H17V16.003h11.008V29.02z"/></symbol>
<symbol id="icon-time" viewBox="0 0 32 32"><path d="M16 30A14.002 14.002 0 0 1 2.269 13.269a13.997 13.997 0 0 1 11-11A13.999 13.999 0 1 1 16 30zm0-26a12.007 12.007 0 0 0-11.087 7.407 12.002 12.002 0 0 0 2.601 13.077A11.999 11.999 0 1 0 24.483 7.513a12.003 12.003 0 0 0-8.485-3.515z"/><path d="M20.59 22 15 16.41V7h2v8.58l5 5.01L20.59 22z"/></symbol>
<symbol id="icon-telegram" viewBox="0 0 32 32"><path d="M16 .5C7.458.5.533 7.44.533 16S7.458 31.5 16 31.5c8.542 0 15.467-6.94 15.467-15.5S24.542.5 16 .5zm7.169 10.541c-.233 2.451-1.24 8.399-1.753 11.144-.217 1.162-.644 1.551-1.057 1.589-.898.083-1.58-.595-2.45-1.166-1.361-.894-2.13-1.451-3.452-2.324-1.527-1.008-.537-1.562.333-2.469.228-.237 4.185-3.844 4.262-4.172.009-.041.019-.194-.072-.274s-.224-.053-.32-.031c-.137.031-2.311 1.472-6.524 4.321-.617.425-1.176.632-1.677.621-.552-.012-1.615-.313-2.404-.57-.969-.316-1.738-.482-1.671-1.018.035-.279.418-.565 1.151-.856 4.509-1.969 7.515-3.267 9.02-3.894 4.295-1.79 5.188-2.101 5.77-2.112.128-.002.414.03.599.18a.652.652 0 0 1 .22.42c.031.202.04.407.026.611z"/></symbol>
<symbol id="icon-point" viewBox="0 0 32 32"><path d="M32 16c0 8.837-7.163 16-16 16S0 24.837 0 16 7.163 0 16 0s16 7.163 16 16z"/></symbol></defs></svg>