<svg xmlns="http://www.w3.org/2000/svg" aria-hidden="true" style="position:absolute;width:0;height:0;overflow:hidden"><defs>
<symbol id="mobile-menu-icon" viewBox="0 0 32 32"><path d="M2.067 13.467A1.266 1.266 0 0 1 .8 12.2V2.069A1.266 1.266 0 0 1 2.067.802H12.2a1.266 1.266 0 0 1 1.267 1.267V12.2a1.266 1.266 0 0 1-1.267 1.267H2.067zm17.733 0a1.266 1.266 0 0 1-1.267-1.267V2.069A1.266 1.266 0 0 1 19.8.802h10.131a1.266 1.266 0 0 1 1.267 1.267V12.2a1.266 1.266 0 0 1-1.267 1.267H19.8zM2.067 31.2A1.266 1.266 0 0 1 .8 29.933V19.8a1.266 1.266 0 0 1 1.267-1.267H12.2a1.266 1.266 0 0 1 1.267 1.267v10.133A1.266 1.266 0 0 1 12.2 31.2H2.067zm17.733 0a1.266 1.266 0 0 1-1.267-1.267V19.8a1.266 1.266 0 0 1 1.267-1.267h10.131a1.266 1.266 0 0 1 1.267 1.267v10.133a1.266 1.266 0 0 1-1.267 1.267H19.8z" /></symbol>
<symbol id="telegram-icon" viewBox="0 0 32 32"><path  d="M16 .5C7.163.5 0 7.44 0 16s7.163 15.5 16 15.5S32 24.56 32 16C32 7.44 24.837.5 16 .5zm7.416 10.541c-.241 2.451-1.283 8.399-1.813 11.144-.224 1.162-.666 1.551-1.093 1.589-.929.083-1.635-.595-2.535-1.166-1.408-.894-2.204-1.451-3.571-2.324-1.58-1.008-.556-1.562.345-2.469.236-.237 4.33-3.844 4.409-4.172.01-.041.019-.194-.074-.274s-.232-.053-.331-.031c-.141.031-2.391 1.472-6.749 4.321-.638.425-1.217.632-1.735.621-.571-.012-1.67-.313-2.487-.57-1.002-.316-1.798-.482-1.729-1.018.036-.279.433-.565 1.19-.856 4.664-1.969 7.775-3.267 9.331-3.894 4.443-1.79 5.367-2.101 5.968-2.112.132-.002.428.03.62.18a.644.644 0 0 1 .228.42c.032.202.042.407.027.611z" /></symbol>
<symbol id="pause-icon" viewBox="0 0 32 32"><path d="M16 0C7.163 0 0 7.163 0 16s7.163 16 16 16 16-7.163 16-16S24.837 0 16 0zm-1.6 22.4h-3.2V9.6h3.2v12.8zm6.4 0h-3.2V9.6h3.2v12.8z"/></symbol>
<symbol id="instagram-icon" viewBox="0 0 32 32"><path  d="M23.111 0A8.888 8.888 0 0 1 32 8.888V23.11a8.891 8.891 0 0 1-8.889 8.889H8.889A8.885 8.885 0 0 1 .001 23.11V8.888A8.888 8.888 0 0 1 8.889 0h14.222zM16 8.889A7.108 7.108 0 0 0 8.889 16 7.108 7.108 0 0 0 16 23.111 7.108 7.108 0 0 0 23.111 16 7.108 7.108 0 0 0 16 8.889zm0 3.555a3.553 3.553 0 0 1 2.514 6.069 3.553 3.553 0 0 1-5.028 0 3.553 3.553 0 0 1 0-5.028A3.553 3.553 0 0 1 16 12.444zm8-6.222A1.781 1.781 0 0 0 22.222 8 1.776 1.776 0 0 0 24 9.778 1.776 1.776 0 0 0 25.778 8 1.776 1.776 0 0 0 24 6.222z" /></symbol>
<symbol id="play-icon" viewBox="0 0 32 32"><path  d="M16 0A16 16 0 0 0 4.687 27.313a16.013 16.013 0 0 0 8.192 4.379A16.004 16.004 0 0 0 32 16 16.002 16.002 0 0 0 16 0zm-3.2 23.2V8.8l9.6 7.2-9.6 7.2z" /></symbol>
<symbol id="close-icon" viewBox="0 0 32 32"><path  d="M30.282.183a1.11 1.11 0 0 1 1.394 1.71L17.568 16.001l14.108 14.108a1.109 1.109 0 1 1-1.568 1.568L16 17.569 1.892 31.677A1.109 1.109 0 0 1 .324 30.11l14.108-14.108L.324 1.894A1.108 1.108 0 1 1 1.892.327L16 14.435 30.108.327c.054-.054.113-.101.174-.142z" /></symbol>
</defs></svg>