<svg xmlns="http://www.w3.org/2000/svg" aria-hidden="true" style="position:absolute;width:0;height:0;overflow:hidden"><defs>
<symbol id="mobile-menu-icon" viewBox="0 0 32 32"><path d="M2.067 13.467A1.266 1.266 0 0 1 .8 12.2V2.069A1.266 1.266 0 0 1 2.067.802H12.2a1.266 1.266 0 0 1 1.267 1.267V12.2a1.266 1.266 0 0 1-1.267 1.267H2.067zm17.733 0a1.266 1.266 0 0 1-1.267-1.267V2.069A1.266 1.266 0 0 1 19.8.802h10.131a1.266 1.266 0 0 1 1.267 1.267V12.2a1.266 1.266 0 0 1-1.267 1.267H19.8zM2.067 31.2A1.266 1.266 0 0 1 .8 29.933V19.8a1.266 1.266 0 0 1 1.267-1.267H12.2a1.266 1.266 0 0 1 1.267 1.267v10.133A1.266 1.266 0 0 1 12.2 31.2H2.067zm17.733 0a1.266 1.266 0 0 1-1.267-1.267V19.8a1.266 1.266 0 0 1 1.267-1.267h10.131a1.266 1.266 0 0 1 1.267 1.267v10.133a1.266 1.266 0 0 1-1.267 1.267H19.8z" /></symbol>
<symbol id="telegram-icon" viewBox="0 0 32 32"><path  d="M16 .5C7.163.5 0 7.44 0 16s7.163 15.5 16 15.5S32 24.56 32 16C32 7.44 24.837.5 16 .5zm7.416 10.541c-.241 2.451-1.283 8.399-1.813 11.144-.224 1.162-.666 1.551-1.093 1.589-.929.083-1.635-.595-2.535-1.166-1.408-.894-2.204-1.451-3.571-2.324-1.58-1.008-.556-1.562.345-2.469.236-.237 4.33-3.844 4.409-4.172.01-.041.019-.194-.074-.274s-.232-.053-.331-.031c-.141.031-2.391 1.472-6.749 4.321-.638.425-1.217.632-1.735.621-.571-.012-1.67-.313-2.487-.57-1.002-.316-1.798-.482-1.729-1.018.036-.279.433-.565 1.19-.856 4.664-1.969 7.775-3.267 9.331-3.894 4.443-1.79 5.367-2.101 5.968-2.112.132-.002.428.03.62.18a.644.644 0 0 1 .228.42c.032.202.042.407.027.611z" /></symbol>
<symbol id="pause-icon" viewBox="0 0 32 32"><path d="M16 0C7.163 0 0 7.163 0 16s7.163 16 16 16 16-7.163 16-16S24.837 0 16 0zm-1.6 22.4h-3.2V9.6h3.2v12.8zm6.4 0h-3.2V9.6h3.2v12.8z"/></symbol>
<symbol id="instagram-icon" viewBox="0 0 32 32"><path  d="M23.111 0A8.888 8.888 0 0 1 32 8.888V23.11a8.891 8.891 0 0 1-8.889 8.889H8.889A8.885 8.885 0 0 1 .001 23.11V8.888A8.888 8.888 0 0 1 8.889 0h14.222zM16 8.889A7.108 7.108 0 0 0 8.889 16 7.108 7.108 0 0 0 16 23.111 7.108 7.108 0 0 0 23.111 16 7.108 7.108 0 0 0 16 8.889zm0 3.555a3.553 3.553 0 0 1 2.514 6.069 3.553 3.553 0 0 1-5.028 0 3.553 3.553 0 0 1 0-5.028A3.553 3.553 0 0 1 16 12.444zm8-6.222A1.781 1.781 0 0 0 22.222 8 1.776 1.776 0 0 0 24 9.778 1.776 1.776 0 0 0 25.778 8 1.776 1.776 0 0 0 24 6.222z" /></symbol>
<symbol id="play-icon" viewBox="0 0 32 32"><path  d="M16 0A16 16 0 0 0 4.687 27.313a16.013 16.013 0 0 0 8.192 4.379A16.004 16.004 0 0 0 32 16 16.002 16.002 0 0 0 16 0zm-3.2 23.2V8.8l9.6 7.2-9.6 7.2z" /></symbol>
<symbol id="close-icon" viewBox="0 0 32 32"><path  d="M30.282.183a1.11 1.11 0 0 1 1.394 1.71L17.568 16.001l14.108 14.108a1.109 1.109 0 1 1-1.568 1.568L16 17.569 1.892 31.677A1.109 1.109 0 0 1 .324 30.11l14.108-14.108L.324 1.894A1.108 1.108 0 1 1 1.892.327L16 14.435 30.108.327c.054-.054.113-.101.174-.142z" /></symbol>
<symbol id="arrow-button-icon" viewBox="0 0 32 32"><path d="m22.633 16-6.467-5.981c-.053-.048-.095-.105-.124-.168s-.043-.13-.042-.198.016-.135.046-.198.073-.119.127-.166a.59.59 0 0 1 .409-.146c.076.001.15.016.219.043a.575.575 0 0 1 .184.116l6.854 6.339c.104.096.162.225.162.358s-.058.262-.162.358l-6.854 6.339c-.052.049-.114.089-.184.116a.632.632 0 0 1-.44.007.571.571 0 0 1-.188-.11c-.054-.047-.097-.104-.127-.166a.47.47 0 0 1 .12-.564l6.467-5.981z"/><path  d="m14.633 16-6.467-5.981c-.053-.048-.095-.105-.124-.168s-.043-.13-.042-.198.016-.135.046-.198.073-.119.127-.166a.59.59 0 0 1 .409-.146c.076.001.15.016.219.043a.575.575 0 0 1 .184.116l6.854 6.339c.104.096.162.225.162.358s-.058.262-.162.358l-6.854 6.339c-.052.049-.114.089-.184.116a.632.632 0 0 1-.44.007.571.571 0 0 1-.188-.11c-.054-.047-.097-.104-.127-.166a.47.47 0 0 1 .12-.564l6.467-5.981z" /></symbol>

<symbol id="icon-group-1" viewBox="0 0 41 32">
<path fill="#e4c07a" style="fill: var(--color1, #e4c07a)" d="M37.886 30.76c-0.018 0-0.038-0.003-0.058-0.009-6.661-1.927-13.321-3.854-19.982-5.781-0.54-0.156-1.522-0.573-1.998-0.573-0.017 0-0.033 0.001-0.048 0.002-1.442 0.099-2.883 0.198-4.325 0.298-1.683 0.116-3.367 0.231-5.050 0.347 0.049-0.084 0.077-0.183 0.077-0.288 0-0.045-0.005-0.088-0.014-0.129 1.76-0.121 3.52-0.242 5.28-0.363 1.359-0.093 2.718-0.187 4.077-0.281 0.026-0.002 0.053-0.003 0.080-0.003 0.571 0 1.325 0.388 1.845 0.538 6.578 1.903 13.158 3.807 19.736 5.71-1.032-2.185-2.065-4.369-3.098-6.554-0.165-0.349-0.522-1.3-0.801-1.892 0.1 0.142 0.263 0.235 0.447 0.235 0.005 0 0.011 0 0.016-0 0.27 0.572 0.541 1.143 0.811 1.715 1.058 2.239 2.116 4.477 3.174 6.715 0.066 0.139-0.022 0.312-0.17 0.312zM1.468 25.386c-0.206 0-0.226-0.278-0.085-0.385 0.961-0.735 1.923-1.47 2.884-2.204 6.242-4.771 12.641-9.257 19.066-13.768 2.736-1.921 5.381-4.56 7.992-6.821 0.634-0.549 0.899-0.77 1.259-0.77 0.287 0 0.635 0.141 1.277 0.368 1.853 0.657 3.706 1.313 5.559 1.97 0.22 0.078 0.156 0.41-0.039 0.41-0.021 0-0.044-0.004-0.068-0.012-1.106-0.392-2.212-0.784-3.318-1.176-1.077-0.382-2.155-0.764-3.232-1.145-0.224-0.079-0.3-0.079-0.292-0.099-0.143 0.124-0.286 0.248-0.43 0.372-1.767 1.53-3.535 3.061-5.302 4.591-0.818 0.708-1.642 1.379-2.478 2.028 0.491 2.317 0.983 4.634 1.474 6.951-0.007-0.035 0.001-0.049 0.020-0.049 0.085 0 0.386 0.281 0.55 0.393 0.541 0.368 1.081 0.735 1.622 1.103 1.336 0.908 2.672 1.817 4.008 2.725 0.391 0.266 1.454 0.712 1.671 1.17 0.009 0.019 0.018 0.038 0.027 0.057-0.081 0.098-0.129 0.224-0.129 0.362 0 0.059 0.009 0.116 0.025 0.169-0.086-0.169-0.161-0.289-0.215-0.326-0.838-0.569-1.675-1.139-2.513-1.709-1.325-0.901-2.65-1.802-3.974-2.703-0.29-0.197-1.394-0.681-1.479-1.082-0.48-2.263-0.96-4.526-1.439-6.788-1.402 1.076-2.835 2.097-4.316 3.136-5.912 4.152-11.694 8.391-17.442 12.774 1.085-0.075 2.17-0.149 3.255-0.224-0.002 0.018-0.002 0.036-0.002 0.055 0 0.132 0.044 0.253 0.119 0.35-1.346 0.093-2.691 0.186-4.037 0.278-0.005 0-0.011 0.001-0.016 0.001z"></path>
<path fill="#e4c07a" style="fill: var(--color1, #e4c07a)" d="M34.054 22.019c-0.184 0-0.347-0.093-0.447-0.235-0.027-0.056-0.053-0.11-0.078-0.159-0.016-0.053-0.025-0.11-0.025-0.169 0-0.138 0.048-0.265 0.129-0.362 0.146 0.308 0.292 0.617 0.438 0.925-0.006 0-0.011 0-0.017 0z"></path>
<path fill="#e4c07a" style="fill: var(--color1, #e4c07a)" d="M5.521 25.107c-0.074-0.096-0.119-0.218-0.119-0.35 0-0.018 0.001-0.037 0.002-0.055 0.361-0.025 0.722-0.050 1.082-0.075 0.009 0.042 0.014 0.085 0.014 0.129 0 0.105-0.028 0.203-0.077 0.288-0.301 0.021-0.602 0.042-0.903 0.062z"></path>
<path fill="#e4c07a" style="fill: var(--color1, #e4c07a)" d="M1.485 23.769l0.459 0.952 1.026 0.153-0.743 0.742 0.175 1.047-0.917-0.494-0.918 0.494 0.176-1.047-0.743-0.742 1.026-0.153 0.459-0.952z"></path>
<path fill="#e4c07a" style="fill: var(--color1, #e4c07a)" d="M10.505 16.837l0.459 0.952 1.026 0.153-0.743 0.742 0.175 1.047-0.917-0.494-0.918 0.494 0.176-1.047-0.743-0.742 1.026-0.153 0.459-0.952z"></path>
<path fill="#e4c07a" style="fill: var(--color1, #e4c07a)" d="M25.545 13.943l0.459 0.953 1.026 0.153-0.742 0.742 0.175 1.047-0.917-0.494-0.918 0.494 0.176-1.047-0.742-0.742 1.026-0.153 0.459-0.953z"></path>
<path fill="#e4c07a" style="fill: var(--color1, #e4c07a)" d="M24.061 7.32l0.458 0.952 1.026 0.153-0.743 0.742 0.175 1.047-0.917-0.494-0.918 0.494 0.176-1.047-0.743-0.742 1.026-0.153 0.459-0.952z"></path>
<path fill="#e4c07a" style="fill: var(--color1, #e4c07a)" d="M32.335 0l0.459 0.953 1.025 0.152-0.742 0.742 0.175 1.047-0.917-0.494-0.918 0.494 0.176-1.047-0.742-0.742 1.025-0.152 0.459-0.953z"></path>
<path fill="#e4c07a" style="fill: var(--color1, #e4c07a)" d="M39.366 2.564l0.459 0.953 1.026 0.153-0.742 0.742 0.175 1.047-0.917-0.495-0.918 0.495 0.176-1.047-0.743-0.742 1.026-0.153 0.459-0.953z"></path>
<path fill="#e4c07a" style="fill: var(--color1, #e4c07a)" d="M33.427 19.681l0.459 0.953 1.025 0.153-0.742 0.742 0.175 1.047-0.917-0.494-0.918 0.494 0.176-1.047-0.743-0.742 1.026-0.153 0.459-0.953z"></path>
<path fill="#e4c07a" style="fill: var(--color1, #e4c07a)" d="M37.882 29.106l0.459 0.952 1.026 0.153-0.742 0.742 0.175 1.047-0.917-0.494-0.918 0.494 0.176-1.047-0.742-0.742 1.026-0.153 0.459-0.952z"></path>
<path fill="#e4c07a" style="fill: var(--color1, #e4c07a)" d="M15.745 22.575l0.459 0.953 1.025 0.153-0.742 0.742 0.175 1.047-0.917-0.494-0.918 0.494 0.176-1.047-0.742-0.742 1.025-0.153 0.459-0.953z"></path>
</symbol>
<symbol id="icon-group-2" viewBox="0 0 41 32">
<path fill="#e4c07a" style="fill: var(--color1, #e4c07a)" d="M21.534 31.222c-0.111 0-0.219-0.088-0.17-0.222 0.59-1.616 1.18-3.233 1.77-4.85 0.233-0.64 0.483-2.372 1.179-2.667 3.056-1.299 6.113-2.599 9.169-3.898 0.037 0.071 0.105 0.101 0.171 0.101 0.112 0 0.219-0.087 0.167-0.22-0.032-0.083-0.065-0.167-0.097-0.25 0.075-0.149 0.168-0.319 0.217-0.425 0.344-0.747 0.687-1.494 1.031-2.242 0.928-2.019 1.856-4.038 2.783-6.057 0.507-1.104 1.014-2.207 1.521-3.311-0.018-0.008-0.038-0.016-0.061-0.025-0.235-0.096-0.47-0.193-0.706-0.289-0.798-0.327-1.597-0.654-2.395-0.981-1.987-0.813-3.975-1.627-5.962-2.441 0.043-0.074 0.068-0.16 0.068-0.253 0-0.040-0.005-0.080-0.014-0.117 3.12 1.277 6.24 2.555 9.36 3.832 0.114 0.047 0.161 0.153 0.108 0.269-1.242 2.703-2.484 5.406-3.726 8.108-0.621 1.35-1.241 2.701-1.861 4.051-0.274 0.597-0.543 0.616-1.165 0.881-2.851 1.212-5.702 2.424-8.553 3.636-0.006 0.016-0.041 0.075-0.093 0.219-0.097 0.265-0.193 0.53-0.29 0.794-0.296 0.811-0.592 1.623-0.888 2.434-0.462 1.266-0.924 2.531-1.386 3.797-0.032 0.087-0.106 0.125-0.178 0.125zM10.071 9.849c-0.065 0-0.127-0.006-0.181-0.021-1.43-0.398-2.861-1.28-4.214-1.885-1.478-0.661-2.956-1.323-4.434-1.984-0.186-0.083-0.069-0.333 0.104-0.333 0.025 0 0.052 0.005 0.079 0.018 1.215 0.544 2.431 1.088 3.647 1.632 1.639 0.734 3.278 1.467 4.917 2.201-0.123-0.055 0.092-0.029 0.312-0.062 0.357-0.054 0.714-0.108 1.070-0.163 1.053-0.16 2.107-0.321 3.161-0.481 1.031-0.157 2.062-0.314 3.093-0.471 0.371-0.056 0.604-0.045 0.853-0.234 1.505-1.143 3.009-2.287 4.514-3.43 1.262-0.959 2.525-1.918 3.788-2.878 0.035-0.027 0.088-0.039 0.155-0.039 0.546 0 2.029 0.804 2.533 1.049-0.109 0.068-0.19 0.178-0.221 0.308-0.619-0.254-1.239-0.507-1.858-0.761-0.088-0.036-0.175-0.072-0.262-0.107-0.018-0.047-0.037-0.095-0.056-0.143-0.033-0.086-0.108-0.123-0.181-0.123-0.112 0-0.219 0.087-0.168 0.22 0.010 0.024 0.019 0.048 0.028 0.073-2.75 2.089-5.5 4.179-8.249 6.268-0.254 0.193-0.842 0.16-1.14 0.205-1.005 0.153-2.009 0.306-3.014 0.459-1.098 0.167-2.197 0.334-3.295 0.501-0.253 0.038-0.667 0.183-0.98 0.183z"></path>
<path fill="#e4c07a" style="fill: var(--color1, #e4c07a)" d="M30.151 3.445c-0.144-0.059-0.289-0.118-0.433-0.177-0.157-0.064-0.315-0.129-0.472-0.193 0.031-0.13 0.112-0.24 0.221-0.308 0.051 0.025 0.093 0.044 0.122 0.056 0.206 0.084 0.411 0.168 0.617 0.252 0.009 0.037 0.014 0.077 0.014 0.117 0 0.092-0.025 0.179-0.068 0.253z"></path>
<path fill="#e4c07a" style="fill: var(--color1, #e4c07a)" d="M33.653 19.686c-0.067 0-0.135-0.031-0.171-0.101-0.003-0.007-0.007-0.014-0.010-0.022-0.757-1.951-1.514-3.902-2.27-5.853 0.003-0.023 0.005-0.048 0.005-0.072 0-0.158-0.072-0.298-0.184-0.389-1.424-3.672-2.848-7.343-4.273-11.015-0.010-0.025-0.019-0.049-0.028-0.073-0.052-0.133 0.056-0.22 0.168-0.22 0.073 0 0.148 0.037 0.181 0.123 0.019 0.047 0.037 0.095 0.056 0.143 1.746 4.501 3.492 9.002 5.237 13.503-0.058 0.082-0.093 0.183-0.093 0.292 0 0.242 0.17 0.444 0.396 0.49 0.352 0.909 0.705 1.817 1.057 2.726 0.032 0.083 0.065 0.167 0.097 0.25 0.052 0.133-0.056 0.22-0.168 0.22z"></path>
<path fill="#e4c07a" style="fill: var(--color1, #e4c07a)" d="M31.201 13.71c-0.060-0.154-0.119-0.308-0.179-0.461 0.112 0.091 0.184 0.232 0.184 0.389 0 0.024-0.002 0.049-0.005 0.072z"></path>
<path fill="#e4c07a" style="fill: var(--color1, #e4c07a)" d="M32.666 16.49c-0.226-0.046-0.396-0.247-0.396-0.49 0-0.109 0.034-0.21 0.093-0.292 0.101 0.261 0.202 0.521 0.303 0.782z"></path>
<path fill="#e4c07a" style="fill: var(--color1, #e4c07a)" d="M26.466 0.585l0.733 0.581 0.888-0.282-0.319 0.885 0.54 0.768-0.931-0.034-0.555 0.757-0.256-0.906-0.883-0.3 0.772-0.526 0.010-0.942z"></path>
<path fill="#e4c07a" style="fill: var(--color1, #e4c07a)" d="M39.518 5.8l0.412 0.845 0.921 0.136-0.667 0.658 0.158 0.929-0.824-0.439-0.824 0.439 0.157-0.929-0.667-0.658 0.922-0.136 0.412-0.845z"></path>
<path fill="#e4c07a" style="fill: var(--color1, #e4c07a)" d="M33.758 18.227l0.412 0.845 0.922 0.136-0.667 0.658 0.157 0.929-0.824-0.439-0.824 0.439 0.157-0.929-0.667-0.658 0.921-0.136 0.412-0.845z"></path>
<path fill="#e4c07a" style="fill: var(--color1, #e4c07a)" d="M18.354 6.808l0.412 0.845 0.921 0.136-0.667 0.658 0.158 0.929-0.824-0.439-0.824 0.439 0.157-0.929-0.667-0.658 0.922-0.136 0.412-0.845z"></path>
<path fill="#e4c07a" style="fill: var(--color1, #e4c07a)" d="M10.825 8.381l-0.263 0.904 0.587 0.732-0.931 0.027-0.506 0.791-0.313-0.888-0.899-0.243 0.737-0.575-0.050-0.941 0.769 0.532 0.869-0.339z"></path>
<path fill="#e4c07a" style="fill: var(--color1, #e4c07a)" d="M1.334 4.517l0.412 0.845 0.921 0.136-0.667 0.658 0.157 0.929-0.824-0.439-0.824 0.439 0.157-0.929-0.667-0.658 0.921-0.136 0.412-0.845z"></path>
<path fill="#e4c07a" style="fill: var(--color1, #e4c07a)" d="M23.394 22.703l0.853 0.377 0.791-0.498-0.090 0.938 0.712 0.607-0.909 0.203-0.35 0.873-0.471-0.813-0.929-0.068 0.618-0.705-0.224-0.915z"></path>
<path fill="#e4c07a" style="fill: var(--color1, #e4c07a)" d="M21.538 29.433l0.412 0.845 0.922 0.136-0.667 0.658 0.157 0.929-0.824-0.438-0.824 0.438 0.158-0.929-0.667-0.658 0.921-0.136 0.412-0.845z"></path>
</symbol>
<symbol id="icon-group-3" viewBox="0 0 55 32">
<path fill="#e4c07a" style="fill: var(--color1, #e4c07a)" d="M32.323 24.89c-0.056 0-0.113-0.030-0.148-0.101-1.39-2.781-2.779-5.563-4.169-8.344-0.267-0.535-0.716-1.104-0.695-1.734 0.050-1.499 0.101-2.998 0.148-4.497 0.068-1.973 0.134-3.945 0.199-5.918 0.012-0.374 0.027-0.748 0.039-1.121-0.142 0.065-0.282 0.129-0.422 0.194-2.553 1.173-5.104 2.345-7.654 3.518-0.018 0.008-0.036 0.011-0.050 0.011-0.065 0-0.125-0.052-0.16-0.105-0.199-0.29-0.401-0.58-0.6-0.869-0.713-1.033-1.425-2.066-2.138-3.099-0.24-0.35-0.482-0.699-0.723-1.048-0.035-0.052-0.056-0.089-0.071-0.119l-0.012 0.006c-1.936 0.513-3.873 1.026-5.809 1.539-0.367 0.097-0.733 0.194-1.1 0.292l-0.047 0.004c-0.005 0.029-0.014 0.065-0.035 0.123-0.321 0.898-0.642 1.795-0.962 2.693-0.434 1.214-0.868 2.428-1.302 3.643-0.212 0.593-0.422 0.886-0.266 1.299 0.43 1.141 0.859 2.283 1.289 3.424 0.138 0.368 0.738 1.376 0.634 1.791-0.417 1.669-1.395 3.356-2.107 4.937l-0.262-0.353c0.62-1.449 1.24-2.897 1.86-4.346 0.208-0.486 0.076-0.437-0.19-1.144-0.391-1.039-0.782-2.077-1.173-3.116-0.109-0.29-0.643-1.2-0.525-1.532 0.214-0.598 0.428-1.195 0.641-1.793 0.681-1.904 1.362-3.809 2.042-5.713 0.263-0.736 2.317-0.845 2.918-1.004 1.474-0.39 2.949-0.781 4.423-1.171 0.017-0.005 0.033-0.007 0.048-0.007 0.066 0 0.119 0.039 0.161 0.1 0.806 1.168 1.61 2.336 2.418 3.504 0.368 0.537 0.739 1.075 1.111 1.612 0.018-0.010 0.039-0.021 0.065-0.034 0.163-0.075 0.327-0.15 0.49-0.225 2.545-1.17 5.092-2.34 7.637-3.51 0.021-0.011 0.045-0.018 0.068-0.018 0.009 0 0.018 0.001 0.024 0.003l0.042 0.017 0.027 0.011c2.138 1.457 4.276 2.914 6.413 4.371 0.496 0.338 1.078 0.859 1.434 0.859 0.822 0 1.645 0 2.467 0 2.491 0 4.979 0 7.47 0l0.184 0.408c-2.693 0-5.389 0-8.082 0-0.736 0-1.473 0-2.209 0-0.457 0-1.093-0.667-1.455-0.914-2.046-1.396-4.094-2.792-6.143-4.188-0.131 3.886-0.261 7.773-0.389 11.66-0.006 0.143 0.466 0.989 0.65 1.356 0.558 1.117 1.116 2.234 1.675 3.35 0.831 1.664 1.663 3.329 2.494 4.994 0.080 0.159-0.048 0.307-0.172 0.307zM4.681 24.608c-0.078-0.105-0.156-0.21-0.234-0.315 0.025-0.051 0.050-0.102 0.075-0.153l-0.016 0.102 0.496-0.287c-0.106 0.218-0.212 0.436-0.32 0.653zM53.219 8.326c-2.423 0-4.843 0-7.262 0l0.184-0.408c2.357 0 4.718 0 7.078 0 0.238 0 0.238 0.408 0 0.408z"></path>
<path fill="#e4c07a" style="fill: var(--color1, #e4c07a)" d="M45.957 8.326c-0.003 0-0.003 0-0.003 0l-0.184-0.408c0.125 0 0.246 0 0.371 0l-0.184 0.408z"></path>
<path fill="#e4c07a" style="fill: var(--color1, #e4c07a)" d="M8.781 1.897l0.423 0.943 0.945 0.151-0.684 0.734 0.162 1.036-0.846-0.489-0.846 0.489 0.161-1.036-0.684-0.734 0.946-0.151 0.423-0.943z"></path>
<path fill="#e4c07a" style="fill: var(--color1, #e4c07a)" d="M15.944-0l0.423 0.943 0.947 0.151-0.686 0.734 0.163 1.036-0.847-0.489-0.846 0.489 0.161-1.036-0.684-0.734 0.946-0.151 0.423-0.943z"></path>
<path fill="#e4c07a" style="fill: var(--color1, #e4c07a)" d="M19.571 4.778l0.422 0.943 0.947 0.151-0.686 0.734 0.163 1.036-0.846-0.489-0.846 0.489 0.16-1.036-0.683-0.734 0.944-0.151 0.425-0.943z"></path>
<path fill="#e4c07a" style="fill: var(--color1, #e4c07a)" d="M27.893 1.432l0.422 0.943 0.947 0.151-0.686 0.734 0.163 1.036-0.846-0.489-0.846 0.489 0.16-1.036-0.683-0.734 0.944-0.151 0.425-0.943z"></path>
<path fill="#e4c07a" style="fill: var(--color1, #e4c07a)" d="M35.604 6.211l0.422 0.943 0.947 0.151-0.686 0.734 0.163 1.036-0.846-0.489-0.846 0.489 0.16-1.036-0.683-0.734 0.944-0.151 0.425-0.943z"></path>
<path fill="#e4c07a" style="fill: var(--color1, #e4c07a)" d="M53.219 6.69l0.422 0.943 0.947 0.151-0.686 0.734 0.163 1.037-0.846-0.489-0.846 0.489 0.16-1.037-0.683-0.734 0.944-0.151 0.424-0.943z"></path>
<path fill="#e4c07a" style="fill: var(--color1, #e4c07a)" d="M27.486 13.551l0.425 0.943 0.944 0.151-0.683 0.734 0.16 1.037-0.846-0.489-0.846 0.489 0.163-1.037-0.686-0.734 0.947-0.151 0.422-0.943z"></path>
<path fill="#e4c07a" style="fill: var(--color1, #e4c07a)" d="M32.335 22.808l0.425 0.943 0.944 0.151-0.683 0.734 0.16 1.037-0.846-0.489-0.843 0.489 0.16-1.037-0.686-0.734 0.947-0.151 0.422-0.943z"></path>
<path fill="#e4c07a" style="fill: var(--color1, #e4c07a)" d="M6.044 9.554l0.423 0.943 0.945 0.151-0.684 0.734 0.162 1.037-0.846-0.489-0.846 0.489 0.162-1.037-0.684-0.734 0.945-0.151 0.423-0.943z"></path>
<path fill="#e4c07a" style="fill: var(--color1, #e4c07a)" d="M8.088 14.983l0.423 0.943 0.945 0.151-0.684 0.734 0.162 1.036-0.846-0.489-0.846 0.489 0.162-1.036-0.684-0.734 0.946-0.151 0.423-0.943z"></path>
<path fill="#e4c07a" style="fill: var(--color1, #e4c07a)" d="M5.351 21.376l0.423 0.943 0.945 0.151-0.684 0.733 0.162 1.036-0.846-0.489-0.846 0.489 0.162-1.036-0.684-0.733 0.946-0.151 0.423-0.943z"></path>
<path fill="#e4c07a" style="fill: var(--color1, #e4c07a)" d="M1.368 29.135l0.423 0.943 0.945 0.151-0.684 0.734 0.162 1.036-0.846-0.489-0.846 0.489 0.161-1.036-0.684-0.734 0.945-0.151 0.423-0.943z"></path>
<path fill="#e4c07a" style="fill: var(--color1, #e4c07a)" d="M5.767 22.304l-0.207-0.461c0.113-0.263 0.225-0.526 0.338-0.788l0.262 0.353c-0.051 0.113-0.101 0.226-0.148 0.338-0.080 0.187-0.162 0.374-0.244 0.559z"></path>
<path fill="#e4c07a" style="fill: var(--color1, #e4c07a)" d="M6.197 24.241l-0.846-0.489-0.286 0.165c-0.14-0.189-0.281-0.378-0.421-0.568l0.023-0.145-0.635-0.681c-0.014-0.018-0.027-0.036-0.040-0.054l0.936-0.15 0.423-0.943 0.209 0.467 0.207 0.461 0.007 0.016 0.945 0.151-0.684 0.733 0.162 1.036z"></path>
<path fill="#e4c07a" style="fill: var(--color1, #e4c07a)" d="M1.831 30.085l-0.040-0.007-0.177-0.395c0.941-1.789 1.939-3.567 2.833-5.391 0.078 0.105 0.156 0.21 0.234 0.315-0.915 1.846-1.902 3.655-2.849 5.477z"></path>
<path fill="#e4c07a" style="fill: var(--color1, #e4c07a)" d="M2.214 32l-0.846-0.489-0.846 0.489 0.161-1.036-0.684-0.734 0.945-0.151 0.423-0.943 0.423 0.943 0.040 0.007 0.906 0.145-0.684 0.734 0.162 1.036z"></path>
</symbol>
<symbol id="icon-group-6" viewBox="0 0 41 32">
<path fill="#e4c07a" style="fill: var(--color1, #e4c07a)" d="M26.264 30.732c-0.052 0-0.104-0.011-0.155-0.036-2.118-1.031-4.239-2.061-6.359-3.092 0.042-0.12 0.069-0.253 0.076-0.392 1.521 0.739 3.043 1.479 4.562 2.218 0.535 0.26 1.070 0.52 1.605 0.78 0.099 0.048 0.197 0.096 0.296 0.144 0.012-0.015 0.030-0.033 0.049-0.055 1.297-1.393 2.597-2.787 3.894-4.18 0.441-0.475 0.883-0.949 1.324-1.423 0 0.001 0 0.001 0 0.001-0.025 0 0.141-0.804 0.182-1.023 0.429-2.217 0.856-4.433 1.285-6.649 0.417-2.168 0.838-4.335 1.245-6.506-3.26-0.086-6.52-0.172-9.782-0.259-0.027-0.007-0.054-0.011-0.081-0.011-0.025 0-0.047 0.003-0.067 0.007-0.163-0.005-0.326-0.009-0.488-0.013-1.159-0.031-2.29 0-3.492-0.217-1.006-0.249-2.045-0.644-3.052-0.971-5.154-1.674-10.587-2.562-15.817-3.757 3.169 5.589 6.335 11.177 9.503 16.765 0.212 0.376 0.427 0.753 0.639 1.129 0.025 0.043 0.030 0.064 0.030 0.072 0.002-0 0.002-0 0.005-0 0.017 0 0.062 0.011 0.163 0.061 0.118 0.058 0.237 0.115 0.358 0.173l-0.261 0.332c-0.242-0.115-0.464-0.265-0.621-0.543-3.432-6.057-6.865-12.115-10.3-18.173-0.084-0.147 0.039-0.3 0.148-0.3 0.010 0 0.017 0.001 0.027 0.003 0.35 0.081 0.7 0.162 1.053 0.243 2.907 0.672 5.815 1.333 8.727 1.963 2.851 0.616 5.602 1.503 8.411 2.415 1.272 0.414 2.673 0.49 4.079 0.49 0.407 0 0.816-0.006 1.221-0.013 0.407-0.006 0.809-0.013 1.208-0.013 0.247 0 0.491 0.003 0.73 0.009 2.579 0.068 5.159 0.136 7.738 0.204 0.202-1.081 0.402-2.162 0.594-3.246 0.195-1.086 0.145-3.207 1.043-3.632 1.418-0.671 2.836-1.342 4.254-2.014 0.017-0.009 0.035-0.013 0.052-0.013 0.148 0 0.195 0.324 0.030 0.403-1.361 0.644-2.72 1.289-4.081 1.933-0.039-0.017-0.084-0.026-0.128-0.026-0.234 0-0.422 0.247-0.422 0.552 0 0.073 0.010 0.143 0.030 0.206-0.007 0.058-0.017 0.123-0.030 0.195-0.187 1.038-0.372 2.075-0.557 3.112-0.153 0.847-0.308 1.693-0.466 2.539 0.15 0.004 0.301 0.008 0.454 0.012 0.197 0.005 0.197 0.404 0.002 0.404h-0.002c-0.178-0.005-0.353-0.009-0.528-0.014-0.395 2.101-0.804 4.197-1.211 6.296-0.424 2.197-0.848 4.395-1.272 6.592-0.17 0.892-0.173 1.397-0.703 1.966-1.267 1.362-2.535 2.724-3.805 4.085-0.318 0.341-0.858 1.267-1.334 1.267zM18.208 26.855c-0.38-0.184-0.757-0.368-1.134-0.552-1.304-0.633-2.606-1.266-3.908-1.899l0.076-0.205 0.276-0.053c0.439 0.213 0.875 0.425 1.312 0.638 1.171 0.569 2.343 1.139 3.514 1.708-0.062 0.107-0.108 0.23-0.136 0.363z"></path>
<path fill="#e4c07a" style="fill: var(--color1, #e4c07a)" d="M19.749 27.604c-0.515-0.25-1.028-0.499-1.541-0.749 0.027-0.133 0.074-0.256 0.136-0.363 0.493 0.24 0.989 0.48 1.482 0.72-0.007 0.14-0.035 0.272-0.076 0.392z"></path>
<path fill="#e4c07a" style="fill: var(--color1, #e4c07a)" d="M35.716 4.278c-0.020-0.064-0.030-0.134-0.030-0.206 0-0.305 0.187-0.552 0.422-0.552 0.044 0 0.089 0.009 0.128 0.026-0.012 0.006-0.022 0.011-0.035 0.016-0.525 0.249-0.39 0.066-0.486 0.716z"></path>
<path fill="#e4c07a" style="fill: var(--color1, #e4c07a)" d="M24.486 10.259c-0.049-0.001-0.099-0.003-0.148-0.004 0.020-0.005 0.042-0.007 0.067-0.007 0.027 0 0.054 0.004 0.081 0.011z"></path>
<path fill="#e4c07a" style="fill: var(--color1, #e4c07a)" d="M13.165 24.404c-0.224-0.109-0.449-0.218-0.673-0.327-0.187-0.090-0.382-0.159-0.567-0.247l0.261-0.332c0.444 0.216 0.888 0.432 1.332 0.648l-0.276 0.053-0.076 0.205z"></path>
<path fill="#e4c07a" style="fill: var(--color1, #e4c07a)" d="M1.137 3.593l0.353 0.934 0.784 0.15-0.567 0.727 0.133 1.026-0.703-0.484-0.703 0.484 0.136-1.026-0.57-0.727 0.787-0.15 0.35-0.934z"></path>
<path fill="#e4c07a" style="fill: var(--color1, #e4c07a)" d="M7.279 5.012l0.35 0.934 0.787 0.15-0.57 0.727 0.136 1.026-0.703-0.484-0.703 0.484 0.133-1.026-0.567-0.727 0.784-0.15 0.353-0.934z"></path>
<path fill="#e4c07a" style="fill: var(--color1, #e4c07a)" d="M13.838 6.431l0.35 0.934 0.787 0.15-0.57 0.727 0.136 1.026-0.703-0.484-0.703 0.484 0.133-1.026-0.567-0.727 0.784-0.15 0.353-0.934z"></path>
<path fill="#e4c07a" style="fill: var(--color1, #e4c07a)" d="M34.626 8.691l0.353 0.934 0.784 0.15-0.567 0.727 0.133 1.026-0.703-0.484-0.703 0.484 0.136-1.026-0.57-0.727 0.787-0.15 0.35-0.934z"></path>
<path fill="#e4c07a" style="fill: var(--color1, #e4c07a)" d="M35.935 2.214l0.177 1.016 0.736 0.385-0.681 0.533-0.053 1.039-0.597-0.686-0.769 0.256 0.314-0.957-0.425-0.881 0.792 0.095 0.506-0.801z"></path>
<path fill="#e4c07a" style="fill: var(--color1, #e4c07a)" d="M40.275-0l0.353 0.934 0.784 0.15-0.567 0.727 0.133 1.026-0.703-0.484-0.703 0.484 0.136-1.026-0.57-0.727 0.787-0.15 0.35-0.934z"></path>
<path fill="#e4c07a" style="fill: var(--color1, #e4c07a)" d="M31.674 23.41l0.353 0.934 0.784 0.15-0.567 0.727 0.133 1.026-0.703-0.484-0.703 0.484 0.136-1.026-0.57-0.727 0.787-0.15 0.35-0.934z"></path>
<path fill="#e4c07a" style="fill: var(--color1, #e4c07a)" d="M26.316 29.163l0.353 0.934 0.784 0.15-0.567 0.727 0.133 1.026-0.703-0.484-0.703 0.484 0.136-1.026-0.57-0.727 0.787-0.15 0.35-0.934z"></path>
<path fill="#e4c07a" style="fill: var(--color1, #e4c07a)" d="M11.565 21.992l0.35 0.934 0.787 0.15-0.57 0.727 0.136 1.026-0.703-0.484-0.703 0.484 0.133-1.026-0.567-0.727 0.784-0.15 0.353-0.934z"></path>
</symbol>
<symbol id="icon-carbon-time" viewBox="0 0 31 32"><path  d="M15.36 29.44A13.439 13.439 0 0 1 5.856 6.496 13.438 13.438 0 0 1 28.8 16a13.437 13.437 0 0 1-13.44 13.44zm0-24.96a11.526 11.526 0 0 0-10.643 7.111 11.524 11.524 0 0 0 2.497 12.555A11.516 11.516 0 0 0 24.938 22.4 11.521 11.521 0 0 0 15.36 4.48z" /><path  d="M19.766 21.76 14.4 16.394V7.36h1.92v8.237l4.8 4.81-1.354 1.354z" /></symbol>
<symbol id="icon-icons-sound" viewBox="0 0 32 32"><path fill="none" stroke="#f6f7f8" stroke-width="1.733" d="M19.103 19.91h-6.242c-.663-.001-1.32.129-1.929.384s-1.158.628-1.613 1.097c-.455.469-.805 1.024-1.031 1.63a4.578 4.578 0 0 0 .24 3.738c.301.574.72 1.082 1.231 1.493.511.411 1.103.715 1.74.895s1.305.23 1.963.149l.831-.101c1.327-.162 2.548-.788 3.433-1.762s1.375-2.229 1.376-3.528v-13.58c0-2.348 0-3.521.708-4.332s1.899-1.005 4.281-1.392l3.52-.57c.203-.032.305-.049.358.009s.03.154-.019.348l-1.336 5.193c-.022.087-.034.131-.066.16s-.075.038-.166.055l-7.28 1.414" style="stroke:var(--color1, #f6f7f8)"/></symbol>
<symbol id="icon-star" viewBox="0 0 29 32"><path d="m14.476 0 .82 5.503c.734 4.922 4.224 8.78 8.677 9.59l4.979.906-4.979.907c-4.453.811-7.943 4.668-8.677 9.59l-.82 5.503-.82-5.503c-.734-4.922-4.224-8.78-8.677-9.59L0 15.999l4.979-.906c4.453-.811 7.944-4.668 8.677-9.59L14.476 0z" /></symbol>
<symbol id="icon-reiki-star" viewBox="0 0 32 32">
<path fill="#f6f7f8" style="fill: var(--color1, #f6f7f8)" d="M16 8.116l-0.273 7.611-7.611 0.273 7.611 0.273 0.273 7.611 0.273-7.611 7.611-0.273-7.611-0.273-0.273-7.611zM15.165 15.165l0.544-15.165h0.581l0.544 15.165 15.165 0.544v0.581l-15.165 0.544-0.544 15.165h-0.581l-0.544-15.165-15.165-0.544v-0.581l15.165-0.544z"></path>
</symbol>
<symbol id="icon-star-faq" viewBox="0 0 32 32"><path fill="#faf8f5" d="M14.588 8.718c.268-1.63 2.612-1.63 2.88 0l.83 5.041 5.041.83c1.63.268 1.63 2.612 0 2.88l-5.041.83-.83 5.041c-.268 1.63-2.612 1.63-2.88 0l-.83-5.041-5.041-.83c-1.63-.268-1.63-2.612 0-2.88l5.041-.83.83-5.041z" style="fill:var(--color1, #faf8f5)"/></symbol>
</defs></svg>